<?xml version="1.0" encoding="UTF-8" standalone="no"?>
<!-- Created with Inkscape (http://www.inkscape.org/) -->

<svg
   xmlns:dc="http://purl.org/dc/elements/1.1/"
   xmlns:cc="http://creativecommons.org/ns#"
   xmlns:rdf="http://www.w3.org/1999/02/22-rdf-syntax-ns#"
   xmlns:svg="http://www.w3.org/2000/svg"
   xmlns="http://www.w3.org/2000/svg"
   xmlns:inkscape="http://www.inkscape.org/namespaces/inkscape"
   version="1.1"
   width="675"
   height="315"
   id="svg2"
   xml:space="preserve"><metadata
     id="metadata8"><rdf:RDF><cc:Work
         rdf:about=""><dc:format>image/svg+xml</dc:format><dc:type
           rdf:resource="http://purl.org/dc/dcmitype/StillImage" /></cc:Work></rdf:RDF></metadata><defs
     id="defs6"><clipPath
       id="clipPath16"><path
         d="M 0,0 540,0 540,252 0,252 0,0 z"
         inkscape:connector-curvature="0"
         id="path18" /></clipPath></defs><g
     transform="matrix(1.25,0,0,-1.25,0,315)"
     id="g10"><g
       id="g12"><g
         clip-path="url(#clipPath16)"
         id="g14"><path
           d="M 0,252 540,252 540,0 0,0 0,252 z"
           inkscape:connector-curvature="0"
           id="path20"
           style="fill:#ffffff;fill-opacity:0;fill-rule:evenodd;stroke:none" /><g
           id="g22"><text
             transform="matrix(1,0,0,-1,425,84.8)"
             id="text24"><tspan
               x="0 5.5900002 12.79 18.290001"
               y="0"
               id="tspan26"
               style="font-size:10px;font-variant:normal;font-weight:normal;writing-mode:lr-tb;fill:#1a1a1a;fill-opacity:1;fill-rule:nonzero;stroke:none;font-family:Liberation Sans;-inkscape-font-specification:LiberationSans">qNaN</tspan></text>
</g><path
           d="m 284.4,61.2 -212.4,0 0,18 424.8,0 0,-18 -212.4,0 z"
           inkscape:connector-curvature="0"
           id="path28"
           style="fill:#b3b3b3;fill-opacity:1;fill-rule:evenodd;stroke:none" /><path
           d="m 504,68.4 -28.8,0 0,136.8 57.6,0 0,-136.8 -28.8,0 z"
           inkscape:connector-curvature="0"
           id="path30"
           style="fill:#b3b3b3;fill-opacity:1;fill-rule:evenodd;stroke:none" /><path
           d="m 504,61.2 -28.8,0 0,18 57.6,0 0,-18 -28.8,0 z"
           inkscape:connector-curvature="0"
           id="path32"
           style="fill:#b3b3b3;fill-opacity:1;fill-rule:evenodd;stroke:none" /><g
           id="g34"><text
             transform="matrix(1,0,0,-1,482.6,66.8)"
             id="text36"><tspan
               x="0 2.2 7.6999998 12.79 18.290001 20.389999 22.59"
               y="0"
               id="tspan38"
               style="font-size:10px;font-variant:normal;font-weight:normal;writing-mode:lr-tb;fill:#1a1a1a;fill-opacity:1;fill-rule:nonzero;stroke:none;font-family:Liberation Sans;-inkscape-font-specification:LiberationSans">invalid</tspan></text>
</g><g
           id="g40"><text
             transform="matrix(1,0,0,-1,252.2,102.8)"
             id="text42"><tspan
               x="0 3.3900001 5.5900002 11.09"
               y="0"
               id="tspan44"
               style="font-size:10px;font-variant:normal;font-weight:normal;writing-mode:lr-tb;fill:#1a1a1a;fill-opacity:1;fill-rule:nonzero;stroke:none;font-family:Liberation Sans;-inkscape-font-specification:LiberationSans">-inf</tspan></text>
</g><path
           d="m 331.2,97.2 -28.8,0 0,18 57.6,0 0,-18 -28.8,0 z"
           inkscape:connector-curvature="0"
           id="path46"
           style="fill:#b3b3b3;fill-opacity:1;fill-rule:evenodd;stroke:none" /><g
           id="g48"><text
             transform="matrix(1,0,0,-1,309.8,102.8)"
             id="text50"><tspan
               x="0 2.2 7.6999998 12.79 18.290001 20.389999 22.59"
               y="0"
               id="tspan52"
               style="font-size:10px;font-variant:normal;font-weight:normal;writing-mode:lr-tb;fill:#1a1a1a;fill-opacity:1;fill-rule:nonzero;stroke:none;font-family:Liberation Sans;-inkscape-font-specification:LiberationSans">invalid</tspan></text>
</g><g
           id="g54"><text
             transform="matrix(1,0,0,-1,367.4,102.8)"
             id="text56"><tspan
               x="0 3.3900001 5.5900002 11.09"
               y="0"
               id="tspan58"
               style="font-size:10px;font-variant:normal;font-weight:normal;writing-mode:lr-tb;fill:#1a1a1a;fill-opacity:1;fill-rule:nonzero;stroke:none;font-family:Liberation Sans;-inkscape-font-specification:LiberationSans">-inf</tspan></text>
</g><g
           id="g60"><text
             transform="matrix(1,0,0,-1,367.4,138.8)"
             id="text62"><tspan
               x="0 3.3900001 5.5900002 11.09"
               y="0"
               id="tspan64"
               style="font-size:10px;font-variant:normal;font-weight:normal;writing-mode:lr-tb;fill:#1a1a1a;fill-opacity:1;fill-rule:nonzero;stroke:none;font-family:Liberation Sans;-inkscape-font-specification:LiberationSans">-inf</tspan></text>
</g><path
           d="m 388.8,115.2 -28.8,0 0,18 57.6,0 0,-18 -28.8,0 z"
           inkscape:connector-curvature="0"
           id="path66"
           style="fill:#b3b3b3;fill-opacity:1;fill-rule:evenodd;stroke:none" /><g
           id="g68"><text
             transform="matrix(1,0,0,-1,367.4,120.8)"
             id="text70"><tspan
               x="0 2.2 7.6999998 12.79 18.290001 20.389999 22.59"
               y="0"
               id="tspan72"
               style="font-size:10px;font-variant:normal;font-weight:normal;writing-mode:lr-tb;fill:#1a1a1a;fill-opacity:1;fill-rule:nonzero;stroke:none;font-family:Liberation Sans;-inkscape-font-specification:LiberationSans">invalid</tspan></text>
</g><g
           id="g74"><text
             transform="matrix(1,0,0,-1,309.8,120.8)"
             id="text76"><tspan
               x="0 5.8000002 7.9000001 13.49"
               y="0"
               id="tspan78"
               style="font-size:10px;font-variant:normal;font-weight:normal;writing-mode:lr-tb;fill:#1a1a1a;fill-opacity:1;fill-rule:nonzero;stroke:none;font-family:Liberation Sans;-inkscape-font-specification:LiberationSans">+inf</tspan></text>
</g><g
           id="g80"><text
             transform="matrix(1,0,0,-1,194.6,156.8)"
             id="text82"><tspan
               x="0 5.8000002"
               y="0"
               id="tspan84"
               style="font-size:10px;font-variant:normal;font-weight:normal;writing-mode:lr-tb;fill:#1a1a1a;fill-opacity:1;fill-rule:nonzero;stroke:none;font-family:Liberation Sans;-inkscape-font-specification:LiberationSans">+0</tspan></text>
</g><g
           id="g86"><text
             transform="matrix(1,0,0,-1,252.2,138.8)"
             id="text88"><tspan
               x="0 3.3900001"
               y="0"
               id="tspan90"
               style="font-size:10px;font-variant:normal;font-weight:normal;writing-mode:lr-tb;fill:#1a1a1a;fill-opacity:1;fill-rule:nonzero;stroke:none;font-family:Liberation Sans;-inkscape-font-specification:LiberationSans">-0</tspan></text>
</g><g
           id="g92"><text
             transform="matrix(1,0,0,-1,83,192.8)"
             id="text94"><tspan
               x="0 5.5 12.1 19.299999"
               y="0"
               id="tspan96"
               style="font-size:10px;font-variant:normal;font-weight:normal;writing-mode:lr-tb;fill:#1a1a1a;fill-opacity:1;fill-rule:nonzero;stroke:none;font-family:Liberation Sans;-inkscape-font-specification:LiberationSans">FADD</tspan></text>
</g><g
           id="g98"><path
             d="m 43.2,205.2 -28.8,0 0,18 57.6,0 0,-18 -28.8,0 z"
             inkscape:connector-curvature="0"
             id="path100"
             style="fill:none;stroke:#000000;stroke-width:0.70749998;stroke-linecap:butt;stroke-linejoin:round;stroke-miterlimit:10;stroke-opacity:1;stroke-dasharray:none" /></g><g
           id="g102"><text
             transform="matrix(1,0,0,-1,39.1,210.8)"
             id="text104"><tspan
               x="0"
               y="0"
               id="tspan106"
               style="font-size:10px;font-variant:normal;font-weight:normal;writing-mode:lr-tb;fill:#1a1a1a;fill-opacity:1;fill-rule:nonzero;stroke:none;font-family:Liberation Sans;-inkscape-font-specification:LiberationSans">m</tspan></text>
</g><g
           id="g108"><path
             d="m 43.2,187.2 -28.8,0 0,18 57.6,0 0,-18 -28.8,0 z"
             inkscape:connector-curvature="0"
             id="path110"
             style="fill:none;stroke:#000000;stroke-width:0.70749998;stroke-linecap:butt;stroke-linejoin:round;stroke-miterlimit:10;stroke-opacity:1;stroke-dasharray:none" /></g><g
           id="g112"><text
             transform="matrix(1,0,0,-1,25.1,192.8)"
             id="text114"><tspan
               x="0 5.6999998 12.9 20.690001 27.889999"
               y="0"
               id="tspan116"
               style="font-size:10px;font-variant:normal;font-weight:normal;writing-mode:lr-tb;fill:#1a1a1a;fill-opacity:1;fill-rule:nonzero;stroke:none;font-family:Liberation Sans;-inkscape-font-specification:LiberationSans">+NORM</tspan></text>
</g><g
           id="g118"><path
             d="m 43.2,169.2 -28.8,0 0,18 57.6,0 0,-18 -28.8,0 z"
             inkscape:connector-curvature="0"
             id="path120"
             style="fill:none;stroke:#000000;stroke-width:0.70749998;stroke-linecap:butt;stroke-linejoin:round;stroke-miterlimit:10;stroke-opacity:1;stroke-dasharray:none" /></g><g
           id="g122"><text
             transform="matrix(1,0,0,-1,25.7,174.6)"
             id="text124"><tspan
               x="0"
               y="0"
               id="tspan126"
               style="font-size:9px;font-variant:normal;font-weight:normal;writing-mode:lr-tb;fill:#1a1a1a;fill-opacity:1;fill-rule:nonzero;stroke:none;font-family:Liberation Sans;-inkscape-font-specification:LiberationSans">-</tspan></text>
</g><g
           id="g128"><text
             transform="matrix(1,0,0,-1,28.7,174.6)"
             id="text130"><tspan
               x="0 7.5914998 15.7815 23.2785"
               y="0"
               id="tspan132"
               style="font-size:10.5px;font-variant:normal;font-weight:normal;writing-mode:lr-tb;fill:#1a1a1a;fill-opacity:1;fill-rule:nonzero;stroke:none;font-family:Liberation Sans;-inkscape-font-specification:LiberationSans">NORM</tspan></text>
</g><g
           id="g134"><path
             d="m 43.2,151.2 -28.8,0 0,18 57.6,0 0,-18 -28.8,0 z"
             inkscape:connector-curvature="0"
             id="path136"
             style="fill:none;stroke:#000000;stroke-width:0.70749998;stroke-linecap:butt;stroke-linejoin:round;stroke-miterlimit:10;stroke-opacity:1;stroke-dasharray:none" /></g><g
           id="g138"><text
             transform="matrix(1,0,0,-1,37.6,156.8)"
             id="text140"><tspan
               x="0 5.6999998"
               y="0"
               id="tspan142"
               style="font-size:10px;font-variant:normal;font-weight:normal;writing-mode:lr-tb;fill:#1a1a1a;fill-opacity:1;fill-rule:nonzero;stroke:none;font-family:Liberation Sans;-inkscape-font-specification:LiberationSans">+0</tspan></text>
</g><g
           id="g144"><path
             d="m 43.2,133.2 -28.8,0 0,18 57.6,0 0,-18 -28.8,0 z"
             inkscape:connector-curvature="0"
             id="path146"
             style="fill:none;stroke:#000000;stroke-width:0.70749998;stroke-linecap:butt;stroke-linejoin:round;stroke-miterlimit:10;stroke-opacity:1;stroke-dasharray:none" /></g><g
           id="g148"><text
             transform="matrix(1,0,0,-1,38.8,138.8)"
             id="text150"><tspan
               x="0 3.3900001"
               y="0"
               id="tspan152"
               style="font-size:10px;font-variant:normal;font-weight:normal;writing-mode:lr-tb;fill:#1a1a1a;fill-opacity:1;fill-rule:nonzero;stroke:none;font-family:Liberation Sans;-inkscape-font-specification:LiberationSans">-0</tspan></text>
</g><g
           id="g154"><path
             d="m 43.2,115.2 -28.8,0 0,18 57.6,0 0,-18 -28.8,0 z"
             inkscape:connector-curvature="0"
             id="path156"
             style="fill:none;stroke:#000000;stroke-width:0.70749998;stroke-linecap:butt;stroke-linejoin:round;stroke-miterlimit:10;stroke-opacity:1;stroke-dasharray:none" /></g><g
           id="g158"><text
             transform="matrix(1,0,0,-1,35.1,120.8)"
             id="text160"><tspan
               x="0 5.6999998 7.9000001 13.4"
               y="0"
               id="tspan162"
               style="font-size:10px;font-variant:normal;font-weight:normal;writing-mode:lr-tb;fill:#1a1a1a;fill-opacity:1;fill-rule:nonzero;stroke:none;font-family:Liberation Sans;-inkscape-font-specification:LiberationSans">+inf</tspan></text>
</g><g
           id="g164"><path
             d="m 43.2,97.2 -28.8,0 0,18 57.6,0 0,-18 -28.8,0 z"
             inkscape:connector-curvature="0"
             id="path166"
             style="fill:none;stroke:#000000;stroke-width:0.70749998;stroke-linecap:butt;stroke-linejoin:round;stroke-miterlimit:10;stroke-opacity:1;stroke-dasharray:none" /></g><g
           id="g168"><text
             transform="matrix(1,0,0,-1,36.3,102.8)"
             id="text170"><tspan
               x="0 3.3900001 5.4899998 10.99"
               y="0"
               id="tspan172"
               style="font-size:10px;font-variant:normal;font-weight:normal;writing-mode:lr-tb;fill:#1a1a1a;fill-opacity:1;fill-rule:nonzero;stroke:none;font-family:Liberation Sans;-inkscape-font-specification:LiberationSans">-inf</tspan></text>
</g><g
           id="g174"><path
             d="m 43.2,79.2 -28.8,0 0,18 57.6,0 0,-18 -28.8,0 z"
             inkscape:connector-curvature="0"
             id="path176"
             style="fill:none;stroke:#000000;stroke-width:0.70749998;stroke-linecap:butt;stroke-linejoin:round;stroke-miterlimit:10;stroke-opacity:1;stroke-dasharray:none" /></g><g
           id="g178"><text
             transform="matrix(1,0,0,-1,30.5,84.8)"
             id="text180"><tspan
               x="0 5.5 12.7 18.200001"
               y="0"
               id="tspan182"
               style="font-size:10px;font-variant:normal;font-weight:normal;writing-mode:lr-tb;fill:#1a1a1a;fill-opacity:1;fill-rule:nonzero;stroke:none;font-family:Liberation Sans;-inkscape-font-specification:LiberationSans">qNaN</tspan></text>
</g><g
           id="g184"><path
             d="m 43.2,61.2 -28.8,0 0,18 57.6,0 0,-18 -28.8,0 z"
             inkscape:connector-curvature="0"
             id="path186"
             style="fill:none;stroke:#000000;stroke-width:0.70749998;stroke-linecap:butt;stroke-linejoin:round;stroke-miterlimit:10;stroke-opacity:1;stroke-dasharray:none" /></g><g
           id="g188"><text
             transform="matrix(1,0,0,-1,30.7,66.8)"
             id="text190"><tspan
               x="0 5.0900002 12.29 17.790001"
               y="0"
               id="tspan192"
               style="font-size:10px;font-variant:normal;font-weight:normal;writing-mode:lr-tb;fill:#1a1a1a;fill-opacity:1;fill-rule:nonzero;stroke:none;font-family:Liberation Sans;-inkscape-font-specification:LiberationSans">sNaN</tspan></text>
</g><g
           id="g194"><path
             d="m 100.8,205.2 -28.8,0 0,18 57.6,0 0,-18 -28.8,0 z"
             inkscape:connector-curvature="0"
             id="path196"
             style="fill:none;stroke:#000000;stroke-width:0.70749998;stroke-linecap:butt;stroke-linejoin:round;stroke-miterlimit:10;stroke-opacity:1;stroke-dasharray:none" /></g><g
           id="g198"><text
             transform="matrix(1,0,0,-1,82.7,210.8)"
             id="text200"><tspan
               x="0 5.6999998 12.9 20.690001 27.889999"
               y="0"
               id="tspan202"
               style="font-size:10px;font-variant:normal;font-weight:normal;writing-mode:lr-tb;fill:#1a1a1a;fill-opacity:1;fill-rule:nonzero;stroke:none;font-family:Liberation Sans;-inkscape-font-specification:LiberationSans">+NORM</tspan></text>
</g><g
           id="g204"><path
             d="m 158.4,205.2 -28.8,0 0,18 57.6,0 0,-18 -28.8,0 z"
             inkscape:connector-curvature="0"
             id="path206"
             style="fill:none;stroke:#000000;stroke-width:0.70749998;stroke-linecap:butt;stroke-linejoin:round;stroke-miterlimit:10;stroke-opacity:1;stroke-dasharray:none" /></g><g
           id="g208"><text
             transform="matrix(1,0,0,-1,141.5,210.8)"
             id="text210"><tspan
               x="0 3.3900001 10.59 18.290001 25.49"
               y="0"
               id="tspan212"
               style="font-size:10px;font-variant:normal;font-weight:normal;writing-mode:lr-tb;fill:#1a1a1a;fill-opacity:1;fill-rule:nonzero;stroke:none;font-family:Liberation Sans;-inkscape-font-specification:LiberationSans">-NORM</tspan></text>
</g><g
           id="g214"><path
             d="m 216,205.2 -28.8,0 0,18 57.6,0 0,-18 -28.8,0 z"
             inkscape:connector-curvature="0"
             id="path216"
             style="fill:none;stroke:#000000;stroke-width:0.70749998;stroke-linecap:butt;stroke-linejoin:round;stroke-miterlimit:10;stroke-opacity:1;stroke-dasharray:none" /></g><g
           id="g218"><text
             transform="matrix(1,0,0,-1,210.4,210.8)"
             id="text220"><tspan
               x="0 5.6999998"
               y="0"
               id="tspan222"
               style="font-size:10px;font-variant:normal;font-weight:normal;writing-mode:lr-tb;fill:#1a1a1a;fill-opacity:1;fill-rule:nonzero;stroke:none;font-family:Liberation Sans;-inkscape-font-specification:LiberationSans">+0</tspan></text>
</g><g
           id="g224"><path
             d="m 273.6,205.2 -28.8,0 0,18 57.6,0 0,-18 -28.8,0 z"
             inkscape:connector-curvature="0"
             id="path226"
             style="fill:none;stroke:#000000;stroke-width:0.70749998;stroke-linecap:butt;stroke-linejoin:round;stroke-miterlimit:10;stroke-opacity:1;stroke-dasharray:none" /></g><g
           id="g228"><text
             transform="matrix(1,0,0,-1,269.2,210.8)"
             id="text230"><tspan
               x="0 3.3900001"
               y="0"
               id="tspan232"
               style="font-size:10px;font-variant:normal;font-weight:normal;writing-mode:lr-tb;fill:#1a1a1a;fill-opacity:1;fill-rule:nonzero;stroke:none;font-family:Liberation Sans;-inkscape-font-specification:LiberationSans">-0</tspan></text>
</g><g
           id="g234"><path
             d="m 331.2,205.2 -28.8,0 0,18 57.6,0 0,-18 -28.8,0 z"
             inkscape:connector-curvature="0"
             id="path236"
             style="fill:none;stroke:#000000;stroke-width:0.70749998;stroke-linecap:butt;stroke-linejoin:round;stroke-miterlimit:10;stroke-opacity:1;stroke-dasharray:none" /></g><g
           id="g238"><text
             transform="matrix(1,0,0,-1,323.1,210.8)"
             id="text240"><tspan
               x="0 5.6999998 7.9000001 13.4"
               y="0"
               id="tspan242"
               style="font-size:10px;font-variant:normal;font-weight:normal;writing-mode:lr-tb;fill:#1a1a1a;fill-opacity:1;fill-rule:nonzero;stroke:none;font-family:Liberation Sans;-inkscape-font-specification:LiberationSans">+inf</tspan></text>
</g><g
           id="g244"><path
             d="m 388.8,205.2 -28.8,0 0,18 57.6,0 0,-18 -28.8,0 z"
             inkscape:connector-curvature="0"
             id="path246"
             style="fill:none;stroke:#000000;stroke-width:0.70749998;stroke-linecap:butt;stroke-linejoin:round;stroke-miterlimit:10;stroke-opacity:1;stroke-dasharray:none" /></g><g
           id="g248"><text
             transform="matrix(1,0,0,-1,381.9,210.8)"
             id="text250"><tspan
               x="0 3.3900001 5.4899998 10.99"
               y="0"
               id="tspan252"
               style="font-size:10px;font-variant:normal;font-weight:normal;writing-mode:lr-tb;fill:#1a1a1a;fill-opacity:1;fill-rule:nonzero;stroke:none;font-family:Liberation Sans;-inkscape-font-specification:LiberationSans">-inf</tspan></text>
</g><g
           id="g254"><path
             d="m 302.4,223.2 -230.4,0 0,18 460.8,0 0,-18 -230.4,0 z"
             inkscape:connector-curvature="0"
             id="path256"
             style="fill:none;stroke:#000000;stroke-width:0.70749998;stroke-linecap:butt;stroke-linejoin:round;stroke-miterlimit:10;stroke-opacity:1;stroke-dasharray:none" /></g><g
           id="g258"><text
             transform="matrix(1,0,0,-1,299.7,228.8)"
             id="text260"><tspan
               x="0"
               y="0"
               id="tspan262"
               style="font-size:10px;font-variant:normal;font-weight:normal;writing-mode:lr-tb;fill:#1a1a1a;fill-opacity:1;fill-rule:nonzero;stroke:none;font-family:Liberation Sans;-inkscape-font-specification:LiberationSans">n</tspan></text>
</g><g
           id="g264"><path
             d="m 446.4,205.2 -28.8,0 0,18 57.6,0 0,-18 -28.8,0 z"
             inkscape:connector-curvature="0"
             id="path266"
             style="fill:none;stroke:#000000;stroke-width:0.70749998;stroke-linecap:butt;stroke-linejoin:round;stroke-miterlimit:10;stroke-opacity:1;stroke-dasharray:none" /></g><g
           id="g268"><text
             transform="matrix(1,0,0,-1,433.7,210.8)"
             id="text270"><tspan
               x="0 5.5 12.7 18.200001"
               y="0"
               id="tspan272"
               style="font-size:10px;font-variant:normal;font-weight:normal;writing-mode:lr-tb;fill:#1a1a1a;fill-opacity:1;fill-rule:nonzero;stroke:none;font-family:Liberation Sans;-inkscape-font-specification:LiberationSans">qNaN</tspan></text>
</g><g
           id="g274"><path
             d="m 504,205.2 -28.8,0 0,18 57.6,0 0,-18 -28.8,0 z"
             inkscape:connector-curvature="0"
             id="path276"
             style="fill:none;stroke:#000000;stroke-width:0.70749998;stroke-linecap:butt;stroke-linejoin:round;stroke-miterlimit:10;stroke-opacity:1;stroke-dasharray:none" /></g><g
           id="g278"><text
             transform="matrix(1,0,0,-1,491.5,210.8)"
             id="text280"><tspan
               x="0 5.0900002 12.29 17.790001"
               y="0"
               id="tspan282"
               style="font-size:10px;font-variant:normal;font-weight:normal;writing-mode:lr-tb;fill:#1a1a1a;fill-opacity:1;fill-rule:nonzero;stroke:none;font-family:Liberation Sans;-inkscape-font-specification:LiberationSans">sNaN</tspan></text>
</g><g
           id="g284"><path
             d="m 72,205.2 0,-144"
             inkscape:connector-curvature="0"
             id="path286"
             style="fill:none;stroke:#000000;stroke-width:2.15078998;stroke-linecap:butt;stroke-linejoin:round;stroke-miterlimit:10;stroke-opacity:1;stroke-dasharray:none" /></g><g
           id="g288"><path
             d="m 72,205.2 460.8,0"
             inkscape:connector-curvature="0"
             id="path290"
             style="fill:none;stroke:#000000;stroke-width:2.15078998;stroke-linecap:butt;stroke-linejoin:round;stroke-miterlimit:10;stroke-opacity:1;stroke-dasharray:none" /></g><g
           id="g292"><path
             d="m 72,133.2 230.4,0"
             inkscape:connector-curvature="0"
             id="path294"
             style="fill:none;stroke:#000000;stroke-width:0.70749998;stroke-linecap:butt;stroke-linejoin:round;stroke-miterlimit:10;stroke-opacity:1;stroke-dasharray:none" /></g><g
           id="g296"><path
             d="m 302.4,133.2 0,72"
             inkscape:connector-curvature="0"
             id="path298"
             style="fill:none;stroke:#000000;stroke-width:0.70749998;stroke-linecap:butt;stroke-linejoin:round;stroke-miterlimit:10;stroke-opacity:1;stroke-dasharray:none" /></g><g
           id="g300"><path
             d="m 72,61.2 460.8,0"
             inkscape:connector-curvature="0"
             id="path302"
             style="fill:none;stroke:#000000;stroke-width:0.70749998;stroke-linecap:butt;stroke-linejoin:round;stroke-miterlimit:10;stroke-opacity:1;stroke-dasharray:none" /></g><g
           id="g304"><path
             d="m 532.8,61.2 0,144"
             inkscape:connector-curvature="0"
             id="path306"
             style="fill:none;stroke:#000000;stroke-width:0.70749998;stroke-linecap:butt;stroke-linejoin:round;stroke-miterlimit:10;stroke-opacity:1;stroke-dasharray:none" /></g><g
           id="g308"><path
             d="m 187.2,133.2 0,36"
             inkscape:connector-curvature="0"
             id="path310"
             style="fill:none;stroke:#000000;stroke-width:0.70749998;stroke-linecap:butt;stroke-linejoin:round;stroke-miterlimit:10;stroke-opacity:1;stroke-dasharray:none" /></g><g
           id="g312"><path
             d="m 187.2,169.2 115.2,0"
             inkscape:connector-curvature="0"
             id="path314"
             style="fill:none;stroke:#000000;stroke-width:0.70749998;stroke-linecap:butt;stroke-linejoin:round;stroke-miterlimit:10;stroke-opacity:1;stroke-dasharray:none" /></g><g
           id="g316"><path
             d="m 244.8,151.2 57.6,0"
             inkscape:connector-curvature="0"
             id="path318"
             style="fill:none;stroke:#000000;stroke-width:0.70749998;stroke-linecap:butt;stroke-linejoin:round;stroke-miterlimit:10;stroke-opacity:1;stroke-dasharray:none" /></g><g
           id="g320"><path
             d="m 244.8,133.2 0,18"
             inkscape:connector-curvature="0"
             id="path322"
             style="fill:none;stroke:#000000;stroke-width:0.70749998;stroke-linecap:butt;stroke-linejoin:round;stroke-miterlimit:10;stroke-opacity:1;stroke-dasharray:none" /></g><g
           id="g324"><path
             d="m 72,115.2 288,0"
             inkscape:connector-curvature="0"
             id="path326"
             style="fill:none;stroke:#000000;stroke-width:0.70749998;stroke-linecap:butt;stroke-linejoin:round;stroke-miterlimit:10;stroke-opacity:1;stroke-dasharray:none" /></g><g
           id="g328"><path
             d="m 360,115.2 0,90"
             inkscape:connector-curvature="0"
             id="path330"
             style="fill:none;stroke:#000000;stroke-width:0.70749998;stroke-linecap:butt;stroke-linejoin:round;stroke-miterlimit:10;stroke-opacity:1;stroke-dasharray:none" /></g><g
           id="g332"><path
             d="m 417.6,97.2 0,108"
             inkscape:connector-curvature="0"
             id="path334"
             style="fill:none;stroke:#000000;stroke-width:0.70749998;stroke-linecap:butt;stroke-linejoin:round;stroke-miterlimit:10;stroke-opacity:1;stroke-dasharray:none" /></g><g
           id="g336"><path
             d="m 72,97.2 345.6,0"
             inkscape:connector-curvature="0"
             id="path338"
             style="fill:none;stroke:#000000;stroke-width:0.70749998;stroke-linecap:butt;stroke-linejoin:round;stroke-miterlimit:10;stroke-opacity:1;stroke-dasharray:none" /></g><g
           id="g340"><path
             d="m 68.4,79.2 406.8,0"
             inkscape:connector-curvature="0"
             id="path342"
             style="fill:none;stroke:#000000;stroke-width:0.70749998;stroke-linecap:butt;stroke-linejoin:round;stroke-miterlimit:10;stroke-opacity:1;stroke-dasharray:none" /></g><g
           id="g344"><path
             d="m 475.2,79.2 0,126"
             inkscape:connector-curvature="0"
             id="path346"
             style="fill:none;stroke:#000000;stroke-width:0.70749998;stroke-linecap:butt;stroke-linejoin:round;stroke-miterlimit:10;stroke-opacity:1;stroke-dasharray:none" /></g><g
           id="g348"><text
             transform="matrix(1,0,0,-1,21.5,36.9)"
             id="text350"><tspan
               x="0 7.8979998 14.003 17.094 23.287001"
               y="0"
               id="tspan352"
               style="font-size:11px;font-variant:normal;font-weight:normal;writing-mode:lr-tb;fill:#1a1a1a;fill-opacity:1;fill-rule:nonzero;stroke:none;font-family:Liberation Sans;-inkscape-font-specification:LiberationSans">Note:</tspan></text>
</g><g
           id="g354"><text
             transform="matrix(1,0,0,-1,57.5,36.9)"
             id="text356"><tspan
               x="0 10.384 16.489 22.681999 28.787001 31.878 39.776001 47.762001 50.853001 57.342999 60.433998 66.539001 69.629997 72.721001 75.911003 82.015999 88.121002 91.211998 96.711998 102.817 105.303 111.408 117.513 120.604 126.709 129.899 132.99001 139.095 142.186 148.291 154.48399 160.589 166.694 170.379 179.66299 185.76801 188.166 190.564 196.064 202.16901 208.274 211.36501 217.558 223.66299 232.84801 238.953 245.146 248.83099 251.922 254.32001 259.82001 263.01001 266.10101 269.78601 275.89099 281.996 285.186 291.29099 297.396 300.487 306.59201 312.09201 315.28201 321.38699"
               y="0"
               id="tspan358"
               style="font-size:11px;font-variant:normal;font-weight:normal;writing-mode:lr-tb;fill:#1a1a1a;fill-opacity:1;fill-rule:nonzero;stroke:none;font-family:Liberation Sans;-inkscape-font-specification:LiberationSans">When DN = 1, the value of a denormalized number is treated as 0.</tspan></text>
</g><g
           id="g360"><text
             transform="matrix(1,0,0,-1,57.5,24.7)"
             id="text362"><tspan
               x="0 10.384 16.489 22.681999 28.787001 31.878 39.776001 47.762001 50.853001 57.342999 60.433998 66.539001 69.629997 72.721001 78.221001 84.414001 86.811996 92.311996 98.417 100.815 106.92 110.011 112.497 118.602 124.707 127.798 130.88901 137.082 140.767 143.858 149.963 156.06799 162.261 168.366 172.05099 181.23599 187.429 189.728 192.12601 197.714 203.819 209.924 213.015 219.20799 225.313 234.498 240.603 246.70799 250.492 255.992 259.08301 261.48099 266.98099 270.17099 273.26199 279.367 285.47198 288.56299 294.06299 300.25601 309.44101 315.54599 318.63699 324.82999 330.32999 333.42099 336.51199 342.70499 346.39001 349.48099 355.586 361.69101 365.37601 374.66 380.76501 383.16299 385.561 391.061 397.16599 403.35901 406.45001 412.55499 418.66 427.944 434.04901 440.15399 443.83899 449.427"
               y="0"
               id="tspan364"
               style="font-size:11px;font-variant:normal;font-weight:normal;writing-mode:lr-tb;fill:#1a1a1a;fill-opacity:1;fill-rule:nonzero;stroke:none;font-family:Liberation Sans;-inkscape-font-specification:LiberationSans">When DN = 0, calculation for denormalized numbers is the same as for normalized numbers.</tspan></text>
</g></g></g></g></svg>
