<?xml version="1.0" encoding="UTF-8" standalone="no"?>
<!-- Created with Inkscape (http://www.inkscape.org/) -->

<svg
   xmlns:dc="http://purl.org/dc/elements/1.1/"
   xmlns:cc="http://creativecommons.org/ns#"
   xmlns:rdf="http://www.w3.org/1999/02/22-rdf-syntax-ns#"
   xmlns:svg="http://www.w3.org/2000/svg"
   xmlns="http://www.w3.org/2000/svg"
   xmlns:inkscape="http://www.inkscape.org/namespaces/inkscape"
   version="1.1"
   width="675"
   height="315"
   id="svg2"
   xml:space="preserve"><metadata
     id="metadata8"><rdf:RDF><cc:Work
         rdf:about=""><dc:format>image/svg+xml</dc:format><dc:type
           rdf:resource="http://purl.org/dc/dcmitype/StillImage" /></cc:Work></rdf:RDF></metadata><defs
     id="defs6"><clipPath
       id="clipPath16"><path
         d="M 0,0 540,0 540,252 0,252 0,0 z"
         inkscape:connector-curvature="0"
         id="path18" /></clipPath></defs><g
     transform="matrix(1.25,0,0,-1.25,0,315)"
     id="g10"><g
       id="g12"><g
         clip-path="url(#clipPath16)"
         id="g14"><path
           d="M 0,252 540,252 540,0 0,0 0,252 z"
           inkscape:connector-curvature="0"
           id="path20"
           style="fill:#ffffff;fill-opacity:0;fill-rule:evenodd;stroke:none" /><g
           id="g22"><text
             transform="matrix(1,0,0,-1,425,84.8)"
             id="text24"><tspan
               x="0 7.1999998"
               y="0"
               id="tspan26"
               style="font-size:10px;font-variant:normal;font-weight:normal;writing-mode:lr-tb;fill:#1a1a1a;fill-opacity:1;fill-rule:nonzero;stroke:none;font-family:Liberation Sans;-inkscape-font-specification:LiberationSans">UO</tspan></text>
</g><path
           d="m 302.4,61.2 -230.4,0 0,18 460.8,0 0,-18 -230.4,0 z"
           inkscape:connector-curvature="0"
           id="path28"
           style="fill:#b3b3b3;fill-opacity:1;fill-rule:evenodd;stroke:none" /><path
           d="m 504,72 -28.8,0 0,133.2 57.6,0 0,-133.2 -28.8,0 z"
           inkscape:connector-curvature="0"
           id="path30"
           style="fill:#b3b3b3;fill-opacity:1;fill-rule:evenodd;stroke:none" /><g
           id="g32"><text
             transform="matrix(1,0,0,-1,482.6,66.8)"
             id="text34"><tspan
               x="0 2.2 7.6999998 12.79 18.290001 20.389999 22.59"
               y="0"
               id="tspan36"
               style="font-size:10px;font-variant:normal;font-weight:normal;writing-mode:lr-tb;fill:#1a1a1a;fill-opacity:1;fill-rule:nonzero;stroke:none;font-family:Liberation Sans;-inkscape-font-specification:LiberationSans">invalid</tspan></text>
</g><g
           id="g38"><text
             transform="matrix(1,0,0,-1,83,192.8)"
             id="text40"><tspan
               x="0 7.1999998 15.5"
               y="0"
               id="tspan42"
               style="font-size:10px;font-variant:normal;font-weight:normal;writing-mode:lr-tb;fill:#1a1a1a;fill-opacity:1;fill-rule:nonzero;stroke:none;font-family:Liberation Sans;-inkscape-font-specification:LiberationSans">CMP</tspan></text>
</g><g
           id="g44"><path
             d="m 43.2,205.2 -28.8,0 0,18 57.6,0 0,-18 -28.8,0 z"
             inkscape:connector-curvature="0"
             id="path46"
             style="fill:none;stroke:#000000;stroke-width:0.70749998;stroke-linecap:butt;stroke-linejoin:round;stroke-miterlimit:10;stroke-opacity:1;stroke-dasharray:none" /></g><g
           id="g48"><text
             transform="matrix(1,0,0,-1,39.1,210.8)"
             id="text50"><tspan
               x="0"
               y="0"
               id="tspan52"
               style="font-size:10px;font-variant:normal;font-weight:normal;writing-mode:lr-tb;fill:#1a1a1a;fill-opacity:1;fill-rule:nonzero;stroke:none;font-family:Liberation Sans;-inkscape-font-specification:LiberationSans">m</tspan></text>
</g><g
           id="g54"><path
             d="m 43.2,187.2 -28.8,0 0,18 57.6,0 0,-18 -28.8,0 z"
             inkscape:connector-curvature="0"
             id="path56"
             style="fill:none;stroke:#000000;stroke-width:0.70749998;stroke-linecap:butt;stroke-linejoin:round;stroke-miterlimit:10;stroke-opacity:1;stroke-dasharray:none" /></g><g
           id="g58"><text
             transform="matrix(1,0,0,-1,28,192.8)"
             id="text60"><tspan
               x="0 7.1999998 14.99 22.190001"
               y="0"
               id="tspan62"
               style="font-size:10px;font-variant:normal;font-weight:normal;writing-mode:lr-tb;fill:#1a1a1a;fill-opacity:1;fill-rule:nonzero;stroke:none;font-family:Liberation Sans;-inkscape-font-specification:LiberationSans">NORM</tspan></text>
</g><g
           id="g64"><path
             d="m 43.2,151.2 -28.8,0 0,18 57.6,0 0,-18 -28.8,0 z"
             inkscape:connector-curvature="0"
             id="path66"
             style="fill:none;stroke:#000000;stroke-width:0.70749998;stroke-linecap:butt;stroke-linejoin:round;stroke-miterlimit:10;stroke-opacity:1;stroke-dasharray:none" /></g><g
           id="g68"><text
             transform="matrix(1,0,0,-1,37.6,156.8)"
             id="text70"><tspan
               x="0 5.6999998"
               y="0"
               id="tspan72"
               style="font-size:10px;font-variant:normal;font-weight:normal;writing-mode:lr-tb;fill:#1a1a1a;fill-opacity:1;fill-rule:nonzero;stroke:none;font-family:Liberation Sans;-inkscape-font-specification:LiberationSans">+0</tspan></text>
</g><g
           id="g74"><path
             d="m 43.2,133.2 -28.8,0 0,18 57.6,0 0,-18 -28.8,0 z"
             inkscape:connector-curvature="0"
             id="path76"
             style="fill:none;stroke:#000000;stroke-width:0.70749998;stroke-linecap:butt;stroke-linejoin:round;stroke-miterlimit:10;stroke-opacity:1;stroke-dasharray:none" /></g><g
           id="g78"><text
             transform="matrix(1,0,0,-1,38.8,138.8)"
             id="text80"><tspan
               x="0 3.3900001"
               y="0"
               id="tspan82"
               style="font-size:10px;font-variant:normal;font-weight:normal;writing-mode:lr-tb;fill:#1a1a1a;fill-opacity:1;fill-rule:nonzero;stroke:none;font-family:Liberation Sans;-inkscape-font-specification:LiberationSans">-0</tspan></text>
</g><g
           id="g84"><path
             d="m 43.2,115.2 -28.8,0 0,18 57.6,0 0,-18 -28.8,0 z"
             inkscape:connector-curvature="0"
             id="path86"
             style="fill:none;stroke:#000000;stroke-width:0.70749998;stroke-linecap:butt;stroke-linejoin:round;stroke-miterlimit:10;stroke-opacity:1;stroke-dasharray:none" /></g><g
           id="g88"><text
             transform="matrix(1,0,0,-1,35.1,120.8)"
             id="text90"><tspan
               x="0 5.6999998 7.9000001 13.4"
               y="0"
               id="tspan92"
               style="font-size:10px;font-variant:normal;font-weight:normal;writing-mode:lr-tb;fill:#1a1a1a;fill-opacity:1;fill-rule:nonzero;stroke:none;font-family:Liberation Sans;-inkscape-font-specification:LiberationSans">+inf</tspan></text>
</g><g
           id="g94"><path
             d="m 43.2,97.2 -28.8,0 0,18 57.6,0 0,-18 -28.8,0 z"
             inkscape:connector-curvature="0"
             id="path96"
             style="fill:none;stroke:#000000;stroke-width:0.70749998;stroke-linecap:butt;stroke-linejoin:round;stroke-miterlimit:10;stroke-opacity:1;stroke-dasharray:none" /></g><g
           id="g98"><text
             transform="matrix(1,0,0,-1,36.3,102.8)"
             id="text100"><tspan
               x="0 3.3900001 5.4899998 10.99"
               y="0"
               id="tspan102"
               style="font-size:10px;font-variant:normal;font-weight:normal;writing-mode:lr-tb;fill:#1a1a1a;fill-opacity:1;fill-rule:nonzero;stroke:none;font-family:Liberation Sans;-inkscape-font-specification:LiberationSans">-inf</tspan></text>
</g><g
           id="g104"><path
             d="m 43.2,79.2 -28.8,0 0,18 57.6,0 0,-18 -28.8,0 z"
             inkscape:connector-curvature="0"
             id="path106"
             style="fill:none;stroke:#000000;stroke-width:0.70749998;stroke-linecap:butt;stroke-linejoin:round;stroke-miterlimit:10;stroke-opacity:1;stroke-dasharray:none" /></g><g
           id="g108"><text
             transform="matrix(1,0,0,-1,30.5,84.8)"
             id="text110"><tspan
               x="0 5.5 12.7 18.200001"
               y="0"
               id="tspan112"
               style="font-size:10px;font-variant:normal;font-weight:normal;writing-mode:lr-tb;fill:#1a1a1a;fill-opacity:1;fill-rule:nonzero;stroke:none;font-family:Liberation Sans;-inkscape-font-specification:LiberationSans">qNaN</tspan></text>
</g><g
           id="g114"><path
             d="m 43.2,61.2 -28.8,0 0,18 57.6,0 0,-18 -28.8,0 z"
             inkscape:connector-curvature="0"
             id="path116"
             style="fill:none;stroke:#000000;stroke-width:0.70749998;stroke-linecap:butt;stroke-linejoin:round;stroke-miterlimit:10;stroke-opacity:1;stroke-dasharray:none" /></g><g
           id="g118"><text
             transform="matrix(1,0,0,-1,30.7,66.8)"
             id="text120"><tspan
               x="0 5.0900002 12.29 17.790001"
               y="0"
               id="tspan122"
               style="font-size:10px;font-variant:normal;font-weight:normal;writing-mode:lr-tb;fill:#1a1a1a;fill-opacity:1;fill-rule:nonzero;stroke:none;font-family:Liberation Sans;-inkscape-font-specification:LiberationSans">sNaN</tspan></text>
</g><g
           id="g124"><path
             d="m 100.8,205.2 -28.8,0 0,18 57.6,0 0,-18 -28.8,0 z"
             inkscape:connector-curvature="0"
             id="path126"
             style="fill:none;stroke:#000000;stroke-width:0.70749998;stroke-linecap:butt;stroke-linejoin:round;stroke-miterlimit:10;stroke-opacity:1;stroke-dasharray:none" /></g><g
           id="g128"><text
             transform="matrix(1,0,0,-1,85.6,210.8)"
             id="text130"><tspan
               x="0 7.1999998 14.99 22.190001"
               y="0"
               id="tspan132"
               style="font-size:10px;font-variant:normal;font-weight:normal;writing-mode:lr-tb;fill:#1a1a1a;fill-opacity:1;fill-rule:nonzero;stroke:none;font-family:Liberation Sans;-inkscape-font-specification:LiberationSans">NORM</tspan></text>
</g><g
           id="g134"><path
             d="m 216,205.2 -28.8,0 0,18 57.6,0 0,-18 -28.8,0 z"
             inkscape:connector-curvature="0"
             id="path136"
             style="fill:none;stroke:#000000;stroke-width:0.70749998;stroke-linecap:butt;stroke-linejoin:round;stroke-miterlimit:10;stroke-opacity:1;stroke-dasharray:none" /></g><g
           id="g138"><text
             transform="matrix(1,0,0,-1,210.4,210.8)"
             id="text140"><tspan
               x="0 5.6999998"
               y="0"
               id="tspan142"
               style="font-size:10px;font-variant:normal;font-weight:normal;writing-mode:lr-tb;fill:#1a1a1a;fill-opacity:1;fill-rule:nonzero;stroke:none;font-family:Liberation Sans;-inkscape-font-specification:LiberationSans">+0</tspan></text>
</g><g
           id="g144"><path
             d="m 273.6,205.2 -28.8,0 0,18 57.6,0 0,-18 -28.8,0 z"
             inkscape:connector-curvature="0"
             id="path146"
             style="fill:none;stroke:#000000;stroke-width:0.70749998;stroke-linecap:butt;stroke-linejoin:round;stroke-miterlimit:10;stroke-opacity:1;stroke-dasharray:none" /></g><g
           id="g148"><text
             transform="matrix(1,0,0,-1,269.2,210.8)"
             id="text150"><tspan
               x="0 3.3900001"
               y="0"
               id="tspan152"
               style="font-size:10px;font-variant:normal;font-weight:normal;writing-mode:lr-tb;fill:#1a1a1a;fill-opacity:1;fill-rule:nonzero;stroke:none;font-family:Liberation Sans;-inkscape-font-specification:LiberationSans">-0</tspan></text>
</g><g
           id="g154"><path
             d="m 331.2,205.2 -28.8,0 0,18 57.6,0 0,-18 -28.8,0 z"
             inkscape:connector-curvature="0"
             id="path156"
             style="fill:none;stroke:#000000;stroke-width:0.70749998;stroke-linecap:butt;stroke-linejoin:round;stroke-miterlimit:10;stroke-opacity:1;stroke-dasharray:none" /></g><g
           id="g158"><text
             transform="matrix(1,0,0,-1,323.1,210.8)"
             id="text160"><tspan
               x="0 5.6999998 7.9000001 13.4"
               y="0"
               id="tspan162"
               style="font-size:10px;font-variant:normal;font-weight:normal;writing-mode:lr-tb;fill:#1a1a1a;fill-opacity:1;fill-rule:nonzero;stroke:none;font-family:Liberation Sans;-inkscape-font-specification:LiberationSans">+inf</tspan></text>
</g><g
           id="g164"><path
             d="m 388.8,205.2 -28.8,0 0,18 57.6,0 0,-18 -28.8,0 z"
             inkscape:connector-curvature="0"
             id="path166"
             style="fill:none;stroke:#000000;stroke-width:0.70749998;stroke-linecap:butt;stroke-linejoin:round;stroke-miterlimit:10;stroke-opacity:1;stroke-dasharray:none" /></g><g
           id="g168"><text
             transform="matrix(1,0,0,-1,381.9,210.8)"
             id="text170"><tspan
               x="0 3.3900001 5.4899998 10.99"
               y="0"
               id="tspan172"
               style="font-size:10px;font-variant:normal;font-weight:normal;writing-mode:lr-tb;fill:#1a1a1a;fill-opacity:1;fill-rule:nonzero;stroke:none;font-family:Liberation Sans;-inkscape-font-specification:LiberationSans">-inf</tspan></text>
</g><g
           id="g174"><path
             d="m 302.4,223.2 -230.4,0 0,18 460.8,0 0,-18 -230.4,0 z"
             inkscape:connector-curvature="0"
             id="path176"
             style="fill:none;stroke:#000000;stroke-width:0.70749998;stroke-linecap:butt;stroke-linejoin:round;stroke-miterlimit:10;stroke-opacity:1;stroke-dasharray:none" /></g><g
           id="g178"><text
             transform="matrix(1,0,0,-1,299.7,228.8)"
             id="text180"><tspan
               x="0"
               y="0"
               id="tspan182"
               style="font-size:10px;font-variant:normal;font-weight:normal;writing-mode:lr-tb;fill:#1a1a1a;fill-opacity:1;fill-rule:nonzero;stroke:none;font-family:Liberation Sans;-inkscape-font-specification:LiberationSans">n</tspan></text>
</g><g
           id="g184"><path
             d="m 446.4,205.2 -28.8,0 0,18 57.6,0 0,-18 -28.8,0 z"
             inkscape:connector-curvature="0"
             id="path186"
             style="fill:none;stroke:#000000;stroke-width:0.70749998;stroke-linecap:butt;stroke-linejoin:round;stroke-miterlimit:10;stroke-opacity:1;stroke-dasharray:none" /></g><g
           id="g188"><text
             transform="matrix(1,0,0,-1,433.7,210.8)"
             id="text190"><tspan
               x="0 5.5 12.7 18.200001"
               y="0"
               id="tspan192"
               style="font-size:10px;font-variant:normal;font-weight:normal;writing-mode:lr-tb;fill:#1a1a1a;fill-opacity:1;fill-rule:nonzero;stroke:none;font-family:Liberation Sans;-inkscape-font-specification:LiberationSans">qNaN</tspan></text>
</g><g
           id="g194"><path
             d="m 504,205.2 -28.8,0 0,18 57.6,0 0,-18 -28.8,0 z"
             inkscape:connector-curvature="0"
             id="path196"
             style="fill:none;stroke:#000000;stroke-width:0.70749998;stroke-linecap:butt;stroke-linejoin:round;stroke-miterlimit:10;stroke-opacity:1;stroke-dasharray:none" /></g><g
           id="g198"><text
             transform="matrix(1,0,0,-1,491.5,210.8)"
             id="text200"><tspan
               x="0 5.0900002 12.29 17.790001"
               y="0"
               id="tspan202"
               style="font-size:10px;font-variant:normal;font-weight:normal;writing-mode:lr-tb;fill:#1a1a1a;fill-opacity:1;fill-rule:nonzero;stroke:none;font-family:Liberation Sans;-inkscape-font-specification:LiberationSans">sNaN</tspan></text>
</g><g
           id="g204"><path
             d="m 72,205.2 460.8,0"
             inkscape:connector-curvature="0"
             id="path206"
             style="fill:none;stroke:#000000;stroke-width:2.15078998;stroke-linecap:butt;stroke-linejoin:round;stroke-miterlimit:10;stroke-opacity:1;stroke-dasharray:none" /></g><g
           id="g208"><path
             d="m 72,61.2 460.8,0"
             inkscape:connector-curvature="0"
             id="path210"
             style="fill:none;stroke:#000000;stroke-width:0.70749998;stroke-linecap:butt;stroke-linejoin:round;stroke-miterlimit:10;stroke-opacity:1;stroke-dasharray:none" /></g><g
           id="g212"><path
             d="m 532.8,61.2 0,144"
             inkscape:connector-curvature="0"
             id="path214"
             style="fill:none;stroke:#000000;stroke-width:0.70749998;stroke-linecap:butt;stroke-linejoin:round;stroke-miterlimit:10;stroke-opacity:1;stroke-dasharray:none" /></g><g
           id="g216"><path
             d="m 72,79.2 403.2,0"
             inkscape:connector-curvature="0"
             id="path218"
             style="fill:none;stroke:#000000;stroke-width:0.70749998;stroke-linecap:butt;stroke-linejoin:round;stroke-miterlimit:10;stroke-opacity:1;stroke-dasharray:none" /></g><g
           id="g220"><path
             d="m 475.2,79.2 0,126"
             inkscape:connector-curvature="0"
             id="path222"
             style="fill:none;stroke:#000000;stroke-width:0.70749998;stroke-linecap:butt;stroke-linejoin:round;stroke-miterlimit:10;stroke-opacity:1;stroke-dasharray:none" /></g><g
           id="g224"><text
             transform="matrix(1,0,0,-1,21.5,41.9)"
             id="text226"><tspan
               x="0 7.8979998 14.003 17.094 23.287001"
               y="0"
               id="tspan228"
               style="font-size:11px;font-variant:normal;font-weight:normal;writing-mode:lr-tb;fill:#1a1a1a;fill-opacity:1;fill-rule:nonzero;stroke:none;font-family:Liberation Sans;-inkscape-font-specification:LiberationSans">Note:</tspan></text>
</g><g
           id="g230"><text
             transform="matrix(1,0,0,-1,57.5,41.9)"
             id="text232"><tspan
               x="0 10.384 16.489 22.681999 28.787001 31.878 39.776001 47.762001 50.853001 57.342999 60.433998 66.539001 69.629997 72.721001 75.911003 82.015999 88.121002 91.211998 96.711998 102.817 105.303 111.408 117.513 120.604 126.709 129.899 132.99001 139.095 142.186 148.291 154.48399 160.589 166.694 170.379 179.66299 185.76801 188.166 190.564 196.064 202.16901 208.274 211.36501 217.558 223.66299 232.84801 238.953 245.146 248.83099 251.922 254.32001 259.82001 263.01001 266.10101 269.78601 275.89099 281.996 285.186 291.29099 297.396 300.487 306.59201 312.09201 315.28201 321.38699"
               y="0"
               id="tspan234"
               style="font-size:11px;font-variant:normal;font-weight:normal;writing-mode:lr-tb;fill:#1a1a1a;fill-opacity:1;fill-rule:nonzero;stroke:none;font-family:Liberation Sans;-inkscape-font-specification:LiberationSans">When DN = 1, the value of a denormalized number is treated as 0.</tspan></text>
</g><g
           id="g236"><text
             transform="matrix(1,0,0,-1,57.5,29.6)"
             id="text238"><tspan
               x="0 7.8979998 16.489 19.679001 28.864 34.969002 41.074001 47.266998 52.766998 55.858002 61.963001 68.155998 74.261002 77.945999 84.051003 90.155998 93.940002 100.045 106.15 109.241 112.332 120.23 126.423 132.528 136.213 142.31799 148.511 152.196 158.30099 164.40601 167.49699 169.895 175.395 178.58501 181.67599 185.36099 191.466 197.659 200.75 206.855 212.96001 216.05099 222.15601 227.744 230.83501 233.92599 240.03101 242.429 248.017 254.12199 257.21301 260.89801 263.98901 267.17899 275.76999 282.46899 286.15399"
               y="0"
               id="tspan240"
               style="font-size:11px;font-variant:normal;font-weight:normal;writing-mode:lr-tb;fill:#1a1a1a;fill-opacity:1;fill-rule:nonzero;stroke:none;font-family:Liberation Sans;-inkscape-font-specification:LiberationSans">UO means unordered. Unordered is treated as false (! GT).</tspan></text>
</g><g
           id="g242"><path
             d="m 158.4,205.2 -28.8,0 0,18 57.6,0 0,-18 -28.8,0 z"
             inkscape:connector-curvature="0"
             id="path244"
             style="fill:none;stroke:#000000;stroke-width:0.70749998;stroke-linecap:butt;stroke-linejoin:round;stroke-miterlimit:10;stroke-opacity:1;stroke-dasharray:none" /></g><g
           id="g246"><text
             transform="matrix(1,0,0,-1,136.3,210.8)"
             id="text248"><tspan
               x="0 7.1999998 13.8 21 28.790001 35.990002"
               y="0"
               id="tspan250"
               style="font-size:10px;font-variant:normal;font-weight:normal;writing-mode:lr-tb;fill:#1a1a1a;fill-opacity:1;fill-rule:nonzero;stroke:none;font-family:Liberation Sans;-inkscape-font-specification:LiberationSans">DENORM</tspan></text>
</g><g
           id="g252"><path
             d="m 43.2,169.2 -28.8,0 0,18 57.6,0 0,-18 -28.8,0 z"
             inkscape:connector-curvature="0"
             id="path254"
             style="fill:none;stroke:#000000;stroke-width:0.70749998;stroke-linecap:butt;stroke-linejoin:round;stroke-miterlimit:10;stroke-opacity:1;stroke-dasharray:none" /></g><g
           id="g256"><text
             transform="matrix(1,0,0,-1,21.1,174.8)"
             id="text258"><tspan
               x="0 7.1999998 13.8 21 28.790001 35.990002"
               y="0"
               id="tspan260"
               style="font-size:10px;font-variant:normal;font-weight:normal;writing-mode:lr-tb;fill:#1a1a1a;fill-opacity:1;fill-rule:nonzero;stroke:none;font-family:Liberation Sans;-inkscape-font-specification:LiberationSans">DENORM</tspan></text>
</g><g
           id="g262"><path
             d="m 72,205.2 0,-144"
             inkscape:connector-curvature="0"
             id="path264"
             style="fill:none;stroke:#000000;stroke-width:2.15078998;stroke-linecap:butt;stroke-linejoin:round;stroke-miterlimit:10;stroke-opacity:1;stroke-dasharray:none" /></g><g
           id="g266"><path
             d="m 72,133.2 115.2,0"
             inkscape:connector-curvature="0"
             id="path268"
             style="fill:none;stroke:#000000;stroke-width:0.70749998;stroke-linecap:butt;stroke-linejoin:round;stroke-miterlimit:10;stroke-opacity:1;stroke-dasharray:none" /></g><g
           id="g270"><path
             d="m 417.6,97.2 0,108"
             inkscape:connector-curvature="0"
             id="path272"
             style="fill:none;stroke:#000000;stroke-width:0.70749998;stroke-linecap:butt;stroke-linejoin:round;stroke-miterlimit:10;stroke-opacity:1;stroke-dasharray:none" /></g><g
           id="g274"><path
             d="m 331.2,133.2 -28.8,0 0,72 57.6,0 0,-72 -28.8,0 z"
             inkscape:connector-curvature="0"
             id="path276"
             style="fill:none;stroke:#000000;stroke-width:0.70749998;stroke-linecap:butt;stroke-linejoin:round;stroke-miterlimit:10;stroke-opacity:1;stroke-dasharray:none" /></g><g
           id="g278"><text
             transform="matrix(1,0,0,-1,309.8,192.3)"
             id="text280"><tspan
               x="0 7.79"
               y="0"
               id="tspan282"
               style="font-size:10px;font-variant:normal;font-weight:normal;writing-mode:lr-tb;fill:#1a1a1a;fill-opacity:1;fill-rule:nonzero;stroke:none;font-family:Liberation Sans;-inkscape-font-specification:LiberationSans">GT</tspan></text>
</g><g
           id="g284"><path
             d="m 216,97.2 -144,0 0,18 288,0 0,-18 -144,0 z"
             inkscape:connector-curvature="0"
             id="path286"
             style="fill:none;stroke:#000000;stroke-width:0.70749998;stroke-linecap:butt;stroke-linejoin:round;stroke-miterlimit:10;stroke-opacity:1;stroke-dasharray:none" /></g><g
           id="g288"><text
             transform="matrix(1,0,0,-1,79.4,102.8)"
             id="text290"><tspan
               x="0 7.79"
               y="0"
               id="tspan292"
               style="font-size:10px;font-variant:normal;font-weight:normal;writing-mode:lr-tb;fill:#1a1a1a;fill-opacity:1;fill-rule:nonzero;stroke:none;font-family:Liberation Sans;-inkscape-font-specification:LiberationSans">GT</tspan></text>
</g><g
           id="g294"><path
             d="m 417.6,97.2 -57.6,0"
             inkscape:connector-curvature="0"
             id="path296"
             style="fill:none;stroke:#000000;stroke-width:0.70749998;stroke-linecap:butt;stroke-linejoin:round;stroke-miterlimit:10;stroke-opacity:1;stroke-dasharray:none" /></g><g
           id="g298"><path
             d="m 187.2,133.2 0,36"
             inkscape:connector-curvature="0"
             id="path300"
             style="fill:none;stroke:#000000;stroke-width:0.70749998;stroke-linecap:butt;stroke-linejoin:round;stroke-miterlimit:10;stroke-opacity:1;stroke-dasharray:none" /></g><g
           id="g302"><path
             d="m 187.2,169.2 115.2,0"
             inkscape:connector-curvature="0"
             id="path304"
             style="fill:none;stroke:#000000;stroke-width:0.70749998;stroke-linecap:butt;stroke-linejoin:round;stroke-miterlimit:10;stroke-opacity:1;stroke-dasharray:none" /></g><g
           id="g306"><text
             transform="matrix(1,0,0,-1,219.8,135.2)"
             id="text308"><tspan
               x="0 2.7 5.4899998 13.28"
               y="0"
               id="tspan310"
               style="font-size:10px;font-variant:normal;font-weight:normal;writing-mode:lr-tb;fill:#1a1a1a;fill-opacity:1;fill-rule:nonzero;stroke:none;font-family:Liberation Sans;-inkscape-font-specification:LiberationSans">! GT</tspan></text>
</g></g></g></g></svg>
