<?xml version="1.0" encoding="UTF-8" standalone="no"?>
<!-- Created with Inkscape (http://www.inkscape.org/) -->

<svg
   xmlns:dc="http://purl.org/dc/elements/1.1/"
   xmlns:cc="http://creativecommons.org/ns#"
   xmlns:rdf="http://www.w3.org/1999/02/22-rdf-syntax-ns#"
   xmlns:svg="http://www.w3.org/2000/svg"
   xmlns="http://www.w3.org/2000/svg"
   xmlns:inkscape="http://www.inkscape.org/namespaces/inkscape"
   version="1.1"
   width="675"
   height="315"
   id="svg2"
   xml:space="preserve"><metadata
     id="metadata8"><rdf:RDF><cc:Work
         rdf:about=""><dc:format>image/svg+xml</dc:format><dc:type
           rdf:resource="http://purl.org/dc/dcmitype/StillImage" /></cc:Work></rdf:RDF></metadata><defs
     id="defs6"><clipPath
       id="clipPath16"><path
         d="M 0,0 540,0 540,252 0,252 0,0 z"
         inkscape:connector-curvature="0"
         id="path18" /></clipPath></defs><g
     transform="matrix(1.25,0,0,-1.25,0,315)"
     id="g10"><g
       id="g12"><g
         clip-path="url(#clipPath16)"
         id="g14"><path
           d="M 0,252 540,252 540,0 0,0 0,252 z"
           inkscape:connector-curvature="0"
           id="path20"
           style="fill:#ffffff;fill-opacity:0;fill-rule:evenodd;stroke:none" /><path
           d="m 244.8,97.2 -57.6,0 0,36 115.2,0 0,-36 -57.6,0 z"
           inkscape:connector-curvature="0"
           id="path22"
           style="fill:#b3b3b3;fill-opacity:1;fill-rule:evenodd;stroke:none" /><path
           d="m 360,133.2 -57.6,0 0,36 115.2,0 0,-36 -57.6,0 z"
           inkscape:connector-curvature="0"
           id="path24"
           style="fill:#b3b3b3;fill-opacity:1;fill-rule:evenodd;stroke:none" /><g
           id="g26"><text
             transform="matrix(1,0,0,-1,425,84.8)"
             id="text28"><tspan
               x="0 5.5900002 12.79 18.290001"
               y="0"
               id="tspan30"
               style="font-size:10px;font-variant:normal;font-weight:normal;writing-mode:lr-tb;fill:#1a1a1a;fill-opacity:1;fill-rule:nonzero;stroke:none;font-family:Liberation Sans;-inkscape-font-specification:LiberationSans">qNaN</tspan></text>
</g><path
           d="m 284.4,61.2 -212.4,0 0,18 424.8,0 0,-18 -212.4,0 z"
           inkscape:connector-curvature="0"
           id="path32"
           style="fill:#b3b3b3;fill-opacity:1;fill-rule:evenodd;stroke:none" /><path
           d="m 504,68.4 -28.8,0 0,136.8 57.6,0 0,-136.8 -28.8,0 z"
           inkscape:connector-curvature="0"
           id="path34"
           style="fill:#b3b3b3;fill-opacity:1;fill-rule:evenodd;stroke:none" /><path
           d="m 504,61.2 -28.8,0 0,18 57.6,0 0,-18 -28.8,0 z"
           inkscape:connector-curvature="0"
           id="path36"
           style="fill:#b3b3b3;fill-opacity:1;fill-rule:evenodd;stroke:none" /><g
           id="g38"><text
             transform="matrix(1,0,0,-1,482.6,66.8)"
             id="text40"><tspan
               x="0 2.2 7.6999998 12.79 18.290001 20.389999 22.59"
               y="0"
               id="tspan42"
               style="font-size:10px;font-variant:normal;font-weight:normal;writing-mode:lr-tb;fill:#1a1a1a;fill-opacity:1;fill-rule:nonzero;stroke:none;font-family:Liberation Sans;-inkscape-font-specification:LiberationSans">invalid</tspan></text>
</g><path
           d="m 273.6,97.2 -28.8,0 0,18 57.6,0 0,-18 -28.8,0 z"
           inkscape:connector-curvature="0"
           id="path44"
           style="fill:#b3b3b3;fill-opacity:1;fill-rule:evenodd;stroke:none" /><g
           id="g46"><text
             transform="matrix(1,0,0,-1,252.2,102.8)"
             id="text48"><tspan
               x="0 2.2 7.6999998 12.79 18.290001 20.389999 22.59"
               y="0"
               id="tspan50"
               style="font-size:10px;font-variant:normal;font-weight:normal;writing-mode:lr-tb;fill:#1a1a1a;fill-opacity:1;fill-rule:nonzero;stroke:none;font-family:Liberation Sans;-inkscape-font-specification:LiberationSans">invalid</tspan></text>
</g><path
           d="m 388.8,133.2 -28.8,0 0,18 57.6,0 0,-18 -28.8,0 z"
           inkscape:connector-curvature="0"
           id="path52"
           style="fill:#b3b3b3;fill-opacity:1;fill-rule:evenodd;stroke:none" /><g
           id="g54"><text
             transform="matrix(1,0,0,-1,367.4,138.8)"
             id="text56"><tspan
               x="0 2.2 7.6999998 12.79 18.290001 20.389999 22.59"
               y="0"
               id="tspan58"
               style="font-size:10px;font-variant:normal;font-weight:normal;writing-mode:lr-tb;fill:#1a1a1a;fill-opacity:1;fill-rule:nonzero;stroke:none;font-family:Liberation Sans;-inkscape-font-specification:LiberationSans">invalid</tspan></text>
</g><g
           id="g60"><text
             transform="matrix(1,0,0,-1,83,192.8)"
             id="text62"><tspan
               x="0 6.0999999 14.4 21.6"
               y="0"
               id="tspan64"
               style="font-size:10px;font-variant:normal;font-weight:normal;writing-mode:lr-tb;fill:#1a1a1a;fill-opacity:1;fill-rule:nonzero;stroke:none;font-family:Liberation Sans;-inkscape-font-specification:LiberationSans">FMUL</tspan></text>
</g><g
           id="g66"><path
             d="m 43.2,205.2 -28.8,0 0,18 57.6,0 0,-18 -28.8,0 z"
             inkscape:connector-curvature="0"
             id="path68"
             style="fill:none;stroke:#000000;stroke-width:0.70749998;stroke-linecap:butt;stroke-linejoin:round;stroke-miterlimit:10;stroke-opacity:1;stroke-dasharray:none" /></g><g
           id="g70"><text
             transform="matrix(1,0,0,-1,39.1,210.8)"
             id="text72"><tspan
               x="0"
               y="0"
               id="tspan74"
               style="font-size:10px;font-variant:normal;font-weight:normal;writing-mode:lr-tb;fill:#1a1a1a;fill-opacity:1;fill-rule:nonzero;stroke:none;font-family:Liberation Sans;-inkscape-font-specification:LiberationSans">m</tspan></text>
</g><g
           id="g76"><path
             d="m 43.2,187.2 -28.8,0 0,18 57.6,0 0,-18 -28.8,0 z"
             inkscape:connector-curvature="0"
             id="path78"
             style="fill:none;stroke:#000000;stroke-width:0.70749998;stroke-linecap:butt;stroke-linejoin:round;stroke-miterlimit:10;stroke-opacity:1;stroke-dasharray:none" /></g><g
           id="g80"><text
             transform="matrix(1,0,0,-1,25.1,192.8)"
             id="text82"><tspan
               x="0 5.6999998 12.9 20.690001 27.889999"
               y="0"
               id="tspan84"
               style="font-size:10px;font-variant:normal;font-weight:normal;writing-mode:lr-tb;fill:#1a1a1a;fill-opacity:1;fill-rule:nonzero;stroke:none;font-family:Liberation Sans;-inkscape-font-specification:LiberationSans">+NORM</tspan></text>
</g><g
           id="g86"><path
             d="m 43.2,169.2 -28.8,0 0,18 57.6,0 0,-18 -28.8,0 z"
             inkscape:connector-curvature="0"
             id="path88"
             style="fill:none;stroke:#000000;stroke-width:0.70749998;stroke-linecap:butt;stroke-linejoin:round;stroke-miterlimit:10;stroke-opacity:1;stroke-dasharray:none" /></g><g
           id="g90"><text
             transform="matrix(1,0,0,-1,26.3,174.8)"
             id="text92"><tspan
               x="0 3.3900001 10.59 18.290001 25.49"
               y="0"
               id="tspan94"
               style="font-size:10px;font-variant:normal;font-weight:normal;writing-mode:lr-tb;fill:#1a1a1a;fill-opacity:1;fill-rule:nonzero;stroke:none;font-family:Liberation Sans;-inkscape-font-specification:LiberationSans">-NORM</tspan></text>
</g><g
           id="g96"><path
             d="m 43.2,151.2 -28.8,0 0,18 57.6,0 0,-18 -28.8,0 z"
             inkscape:connector-curvature="0"
             id="path98"
             style="fill:none;stroke:#000000;stroke-width:0.70749998;stroke-linecap:butt;stroke-linejoin:round;stroke-miterlimit:10;stroke-opacity:1;stroke-dasharray:none" /></g><g
           id="g100"><text
             transform="matrix(1,0,0,-1,37.6,156.8)"
             id="text102"><tspan
               x="0 5.6999998"
               y="0"
               id="tspan104"
               style="font-size:10px;font-variant:normal;font-weight:normal;writing-mode:lr-tb;fill:#1a1a1a;fill-opacity:1;fill-rule:nonzero;stroke:none;font-family:Liberation Sans;-inkscape-font-specification:LiberationSans">+0</tspan></text>
</g><g
           id="g106"><path
             d="m 43.2,133.2 -28.8,0 0,18 57.6,0 0,-18 -28.8,0 z"
             inkscape:connector-curvature="0"
             id="path108"
             style="fill:none;stroke:#000000;stroke-width:0.70749998;stroke-linecap:butt;stroke-linejoin:round;stroke-miterlimit:10;stroke-opacity:1;stroke-dasharray:none" /></g><g
           id="g110"><text
             transform="matrix(1,0,0,-1,38.8,138.8)"
             id="text112"><tspan
               x="0 3.3900001"
               y="0"
               id="tspan114"
               style="font-size:10px;font-variant:normal;font-weight:normal;writing-mode:lr-tb;fill:#1a1a1a;fill-opacity:1;fill-rule:nonzero;stroke:none;font-family:Liberation Sans;-inkscape-font-specification:LiberationSans">-0</tspan></text>
</g><g
           id="g116"><path
             d="m 43.2,115.2 -28.8,0 0,18 57.6,0 0,-18 -28.8,0 z"
             inkscape:connector-curvature="0"
             id="path118"
             style="fill:none;stroke:#000000;stroke-width:0.70749998;stroke-linecap:butt;stroke-linejoin:round;stroke-miterlimit:10;stroke-opacity:1;stroke-dasharray:none" /></g><g
           id="g120"><text
             transform="matrix(1,0,0,-1,35.1,120.8)"
             id="text122"><tspan
               x="0 5.6999998 7.9000001 13.4"
               y="0"
               id="tspan124"
               style="font-size:10px;font-variant:normal;font-weight:normal;writing-mode:lr-tb;fill:#1a1a1a;fill-opacity:1;fill-rule:nonzero;stroke:none;font-family:Liberation Sans;-inkscape-font-specification:LiberationSans">+inf</tspan></text>
</g><g
           id="g126"><path
             d="m 43.2,97.2 -28.8,0 0,18 57.6,0 0,-18 -28.8,0 z"
             inkscape:connector-curvature="0"
             id="path128"
             style="fill:none;stroke:#000000;stroke-width:0.70749998;stroke-linecap:butt;stroke-linejoin:round;stroke-miterlimit:10;stroke-opacity:1;stroke-dasharray:none" /></g><g
           id="g130"><text
             transform="matrix(1,0,0,-1,36.3,102.8)"
             id="text132"><tspan
               x="0 3.3900001 5.4899998 10.99"
               y="0"
               id="tspan134"
               style="font-size:10px;font-variant:normal;font-weight:normal;writing-mode:lr-tb;fill:#1a1a1a;fill-opacity:1;fill-rule:nonzero;stroke:none;font-family:Liberation Sans;-inkscape-font-specification:LiberationSans">-inf</tspan></text>
</g><g
           id="g136"><path
             d="m 43.2,79.2 -28.8,0 0,18 57.6,0 0,-18 -28.8,0 z"
             inkscape:connector-curvature="0"
             id="path138"
             style="fill:none;stroke:#000000;stroke-width:0.70749998;stroke-linecap:butt;stroke-linejoin:round;stroke-miterlimit:10;stroke-opacity:1;stroke-dasharray:none" /></g><g
           id="g140"><text
             transform="matrix(1,0,0,-1,30.5,84.8)"
             id="text142"><tspan
               x="0 5.5 12.7 18.200001"
               y="0"
               id="tspan144"
               style="font-size:10px;font-variant:normal;font-weight:normal;writing-mode:lr-tb;fill:#1a1a1a;fill-opacity:1;fill-rule:nonzero;stroke:none;font-family:Liberation Sans;-inkscape-font-specification:LiberationSans">qNaN</tspan></text>
</g><g
           id="g146"><path
             d="m 43.2,61.2 -28.8,0 0,18 57.6,0 0,-18 -28.8,0 z"
             inkscape:connector-curvature="0"
             id="path148"
             style="fill:none;stroke:#000000;stroke-width:0.70749998;stroke-linecap:butt;stroke-linejoin:round;stroke-miterlimit:10;stroke-opacity:1;stroke-dasharray:none" /></g><g
           id="g150"><text
             transform="matrix(1,0,0,-1,30.7,66.8)"
             id="text152"><tspan
               x="0 5.0900002 12.29 17.790001"
               y="0"
               id="tspan154"
               style="font-size:10px;font-variant:normal;font-weight:normal;writing-mode:lr-tb;fill:#1a1a1a;fill-opacity:1;fill-rule:nonzero;stroke:none;font-family:Liberation Sans;-inkscape-font-specification:LiberationSans">sNaN</tspan></text>
</g><g
           id="g156"><path
             d="m 100.8,205.2 -28.8,0 0,18 57.6,0 0,-18 -28.8,0 z"
             inkscape:connector-curvature="0"
             id="path158"
             style="fill:none;stroke:#000000;stroke-width:0.70749998;stroke-linecap:butt;stroke-linejoin:round;stroke-miterlimit:10;stroke-opacity:1;stroke-dasharray:none" /></g><g
           id="g160"><text
             transform="matrix(1,0,0,-1,82.7,210.8)"
             id="text162"><tspan
               x="0 5.6999998 12.9 20.690001 27.889999"
               y="0"
               id="tspan164"
               style="font-size:10px;font-variant:normal;font-weight:normal;writing-mode:lr-tb;fill:#1a1a1a;fill-opacity:1;fill-rule:nonzero;stroke:none;font-family:Liberation Sans;-inkscape-font-specification:LiberationSans">+NORM</tspan></text>
</g><g
           id="g166"><path
             d="m 158.4,205.2 -28.8,0 0,18 57.6,0 0,-18 -28.8,0 z"
             inkscape:connector-curvature="0"
             id="path168"
             style="fill:none;stroke:#000000;stroke-width:0.70749998;stroke-linecap:butt;stroke-linejoin:round;stroke-miterlimit:10;stroke-opacity:1;stroke-dasharray:none" /></g><g
           id="g170"><text
             transform="matrix(1,0,0,-1,141.5,210.8)"
             id="text172"><tspan
               x="0 3.3900001 10.59 18.290001 25.49"
               y="0"
               id="tspan174"
               style="font-size:10px;font-variant:normal;font-weight:normal;writing-mode:lr-tb;fill:#1a1a1a;fill-opacity:1;fill-rule:nonzero;stroke:none;font-family:Liberation Sans;-inkscape-font-specification:LiberationSans">-NORM</tspan></text>
</g><g
           id="g176"><path
             d="m 216,205.2 -28.8,0 0,18 57.6,0 0,-18 -28.8,0 z"
             inkscape:connector-curvature="0"
             id="path178"
             style="fill:none;stroke:#000000;stroke-width:0.70749998;stroke-linecap:butt;stroke-linejoin:round;stroke-miterlimit:10;stroke-opacity:1;stroke-dasharray:none" /></g><g
           id="g180"><text
             transform="matrix(1,0,0,-1,210.4,210.8)"
             id="text182"><tspan
               x="0 5.6999998"
               y="0"
               id="tspan184"
               style="font-size:10px;font-variant:normal;font-weight:normal;writing-mode:lr-tb;fill:#1a1a1a;fill-opacity:1;fill-rule:nonzero;stroke:none;font-family:Liberation Sans;-inkscape-font-specification:LiberationSans">+0</tspan></text>
</g><g
           id="g186"><path
             d="m 273.6,205.2 -28.8,0 0,18 57.6,0 0,-18 -28.8,0 z"
             inkscape:connector-curvature="0"
             id="path188"
             style="fill:none;stroke:#000000;stroke-width:0.70749998;stroke-linecap:butt;stroke-linejoin:round;stroke-miterlimit:10;stroke-opacity:1;stroke-dasharray:none" /></g><g
           id="g190"><text
             transform="matrix(1,0,0,-1,269.2,210.8)"
             id="text192"><tspan
               x="0 3.3900001"
               y="0"
               id="tspan194"
               style="font-size:10px;font-variant:normal;font-weight:normal;writing-mode:lr-tb;fill:#1a1a1a;fill-opacity:1;fill-rule:nonzero;stroke:none;font-family:Liberation Sans;-inkscape-font-specification:LiberationSans">-0</tspan></text>
</g><g
           id="g196"><path
             d="m 331.2,205.2 -28.8,0 0,18 57.6,0 0,-18 -28.8,0 z"
             inkscape:connector-curvature="0"
             id="path198"
             style="fill:none;stroke:#000000;stroke-width:0.70749998;stroke-linecap:butt;stroke-linejoin:round;stroke-miterlimit:10;stroke-opacity:1;stroke-dasharray:none" /></g><g
           id="g200"><text
             transform="matrix(1,0,0,-1,323.1,210.8)"
             id="text202"><tspan
               x="0 5.6999998 7.9000001 13.4"
               y="0"
               id="tspan204"
               style="font-size:10px;font-variant:normal;font-weight:normal;writing-mode:lr-tb;fill:#1a1a1a;fill-opacity:1;fill-rule:nonzero;stroke:none;font-family:Liberation Sans;-inkscape-font-specification:LiberationSans">+inf</tspan></text>
</g><g
           id="g206"><path
             d="m 388.8,205.2 -28.8,0 0,18 57.6,0 0,-18 -28.8,0 z"
             inkscape:connector-curvature="0"
             id="path208"
             style="fill:none;stroke:#000000;stroke-width:0.70749998;stroke-linecap:butt;stroke-linejoin:round;stroke-miterlimit:10;stroke-opacity:1;stroke-dasharray:none" /></g><g
           id="g210"><text
             transform="matrix(1,0,0,-1,381.9,210.8)"
             id="text212"><tspan
               x="0 3.3900001 5.4899998 10.99"
               y="0"
               id="tspan214"
               style="font-size:10px;font-variant:normal;font-weight:normal;writing-mode:lr-tb;fill:#1a1a1a;fill-opacity:1;fill-rule:nonzero;stroke:none;font-family:Liberation Sans;-inkscape-font-specification:LiberationSans">-inf</tspan></text>
</g><g
           id="g216"><path
             d="m 302.4,223.2 -230.4,0 0,18 460.8,0 0,-18 -230.4,0 z"
             inkscape:connector-curvature="0"
             id="path218"
             style="fill:none;stroke:#000000;stroke-width:0.70749998;stroke-linecap:butt;stroke-linejoin:round;stroke-miterlimit:10;stroke-opacity:1;stroke-dasharray:none" /></g><g
           id="g220"><text
             transform="matrix(1,0,0,-1,299.7,228.8)"
             id="text222"><tspan
               x="0"
               y="0"
               id="tspan224"
               style="font-size:10px;font-variant:normal;font-weight:normal;writing-mode:lr-tb;fill:#1a1a1a;fill-opacity:1;fill-rule:nonzero;stroke:none;font-family:Liberation Sans;-inkscape-font-specification:LiberationSans">n</tspan></text>
</g><g
           id="g226"><path
             d="m 446.4,205.2 -28.8,0 0,18 57.6,0 0,-18 -28.8,0 z"
             inkscape:connector-curvature="0"
             id="path228"
             style="fill:none;stroke:#000000;stroke-width:0.70749998;stroke-linecap:butt;stroke-linejoin:round;stroke-miterlimit:10;stroke-opacity:1;stroke-dasharray:none" /></g><g
           id="g230"><text
             transform="matrix(1,0,0,-1,433.7,210.8)"
             id="text232"><tspan
               x="0 5.5 12.7 18.200001"
               y="0"
               id="tspan234"
               style="font-size:10px;font-variant:normal;font-weight:normal;writing-mode:lr-tb;fill:#1a1a1a;fill-opacity:1;fill-rule:nonzero;stroke:none;font-family:Liberation Sans;-inkscape-font-specification:LiberationSans">qNaN</tspan></text>
</g><g
           id="g236"><path
             d="m 504,205.2 -28.8,0 0,18 57.6,0 0,-18 -28.8,0 z"
             inkscape:connector-curvature="0"
             id="path238"
             style="fill:none;stroke:#000000;stroke-width:0.70749998;stroke-linecap:butt;stroke-linejoin:round;stroke-miterlimit:10;stroke-opacity:1;stroke-dasharray:none" /></g><g
           id="g240"><text
             transform="matrix(1,0,0,-1,491.5,210.8)"
             id="text242"><tspan
               x="0 5.0900002 12.29 17.790001"
               y="0"
               id="tspan244"
               style="font-size:10px;font-variant:normal;font-weight:normal;writing-mode:lr-tb;fill:#1a1a1a;fill-opacity:1;fill-rule:nonzero;stroke:none;font-family:Liberation Sans;-inkscape-font-specification:LiberationSans">sNaN</tspan></text>
</g><g
           id="g246"><path
             d="m 72,205.2 0,-144"
             inkscape:connector-curvature="0"
             id="path248"
             style="fill:none;stroke:#000000;stroke-width:2.15078998;stroke-linecap:butt;stroke-linejoin:round;stroke-miterlimit:10;stroke-opacity:1;stroke-dasharray:none" /></g><g
           id="g250"><path
             d="m 72,205.2 460.8,0"
             inkscape:connector-curvature="0"
             id="path252"
             style="fill:none;stroke:#000000;stroke-width:2.15078998;stroke-linecap:butt;stroke-linejoin:round;stroke-miterlimit:10;stroke-opacity:1;stroke-dasharray:none" /></g><g
           id="g254"><path
             d="m 72,61.2 460.8,0"
             inkscape:connector-curvature="0"
             id="path256"
             style="fill:none;stroke:#000000;stroke-width:0.70749998;stroke-linecap:butt;stroke-linejoin:round;stroke-miterlimit:10;stroke-opacity:1;stroke-dasharray:none" /></g><g
           id="g258"><path
             d="m 532.8,61.2 0,144"
             inkscape:connector-curvature="0"
             id="path260"
             style="fill:none;stroke:#000000;stroke-width:0.70749998;stroke-linecap:butt;stroke-linejoin:round;stroke-miterlimit:10;stroke-opacity:1;stroke-dasharray:none" /></g><g
           id="g262"><path
             d="m 72,97.2 345.6,0"
             inkscape:connector-curvature="0"
             id="path264"
             style="fill:none;stroke:#000000;stroke-width:0.70749998;stroke-linecap:butt;stroke-linejoin:round;stroke-miterlimit:10;stroke-opacity:1;stroke-dasharray:none" /></g><g
           id="g266"><path
             d="m 68.4,79.2 406.8,0"
             inkscape:connector-curvature="0"
             id="path268"
             style="fill:none;stroke:#000000;stroke-width:0.70749998;stroke-linecap:butt;stroke-linejoin:round;stroke-miterlimit:10;stroke-opacity:1;stroke-dasharray:none" /></g><g
           id="g270"><path
             d="m 475.2,79.2 0,126"
             inkscape:connector-curvature="0"
             id="path272"
             style="fill:none;stroke:#000000;stroke-width:0.70749998;stroke-linecap:butt;stroke-linejoin:round;stroke-miterlimit:10;stroke-opacity:1;stroke-dasharray:none" /></g><g
           id="g274"><text
             transform="matrix(1,0,0,-1,21.5,36.9)"
             id="text276"><tspan
               x="0 7.8979998 14.003 17.094 23.287001"
               y="0"
               id="tspan278"
               style="font-size:11px;font-variant:normal;font-weight:normal;writing-mode:lr-tb;fill:#1a1a1a;fill-opacity:1;fill-rule:nonzero;stroke:none;font-family:Liberation Sans;-inkscape-font-specification:LiberationSans">Note:</tspan></text>
</g><g
           id="g280"><text
             transform="matrix(1,0,0,-1,57.5,36.9)"
             id="text282"><tspan
               x="0 10.384 16.489 22.681999 28.787001 31.878 39.776001 47.762001 50.853001 57.342999 60.433998 66.539001 69.629997 72.721001 78.221001 84.414001 86.811996 92.311996 98.417 100.815 106.92 110.011 112.497 118.602 124.707 127.798 130.88901 137.082 140.767 143.858 149.963 156.06799 162.261 168.366 172.05099 181.23599 187.429 189.728 192.12601 197.714 203.819 209.924 213.015 219.20799 225.313 234.498 240.603 246.70799 250.492 255.992 259.08301 261.48099 266.98099 270.17099 273.26199 279.367 285.47198 288.56299 294.06299 300.25601 309.44101 315.54599 318.63699 324.82999 330.32999 333.42099 336.51199 342.70499 346.39001 349.48099 355.586 361.69101 365.37601 374.66 380.76501 383.16299 385.561 391.061 397.16599 403.35901 406.45001 412.55499 418.66 427.944 434.04901 440.15399 443.83899 449.427"
               y="0"
               id="tspan284"
               style="font-size:11px;font-variant:normal;font-weight:normal;writing-mode:lr-tb;fill:#1a1a1a;fill-opacity:1;fill-rule:nonzero;stroke:none;font-family:Liberation Sans;-inkscape-font-specification:LiberationSans">When DN = 0, calculation for denormalized numbers is the same as for normalized numbers.</tspan></text>
</g><g
           id="g286"><path
             d="m 216,187.2 -28.8,0 0,18 57.6,0 0,-18 -28.8,0 z"
             inkscape:connector-curvature="0"
             id="path288"
             style="fill:none;stroke:#000000;stroke-width:0.70749998;stroke-linecap:butt;stroke-linejoin:round;stroke-miterlimit:10;stroke-opacity:1;stroke-dasharray:none" /></g><g
           id="g290"><text
             transform="matrix(1,0,0,-1,210.4,192.8)"
             id="text292"><tspan
               x="0 5.6999998"
               y="0"
               id="tspan294"
               style="font-size:10px;font-variant:normal;font-weight:normal;writing-mode:lr-tb;fill:#1a1a1a;fill-opacity:1;fill-rule:nonzero;stroke:none;font-family:Liberation Sans;-inkscape-font-specification:LiberationSans">+0</tspan></text>
</g><g
           id="g296"><path
             d="m 273.6,169.2 -28.8,0 0,18 57.6,0 0,-18 -28.8,0 z"
             inkscape:connector-curvature="0"
             id="path298"
             style="fill:none;stroke:#000000;stroke-width:0.70749998;stroke-linecap:butt;stroke-linejoin:round;stroke-miterlimit:10;stroke-opacity:1;stroke-dasharray:none" /></g><g
           id="g300"><text
             transform="matrix(1,0,0,-1,268,174.8)"
             id="text302"><tspan
               x="0 5.6999998"
               y="0"
               id="tspan304"
               style="font-size:10px;font-variant:normal;font-weight:normal;writing-mode:lr-tb;fill:#1a1a1a;fill-opacity:1;fill-rule:nonzero;stroke:none;font-family:Liberation Sans;-inkscape-font-specification:LiberationSans">+0</tspan></text>
</g><g
           id="g306"><path
             d="m 273.6,187.2 -28.8,0 0,18 57.6,0 0,-18 -28.8,0 z"
             inkscape:connector-curvature="0"
             id="path308"
             style="fill:none;stroke:#000000;stroke-width:0.70749998;stroke-linecap:butt;stroke-linejoin:round;stroke-miterlimit:10;stroke-opacity:1;stroke-dasharray:none" /></g><g
           id="g310"><text
             transform="matrix(1,0,0,-1,269.2,192.8)"
             id="text312"><tspan
               x="0 3.3900001"
               y="0"
               id="tspan314"
               style="font-size:10px;font-variant:normal;font-weight:normal;writing-mode:lr-tb;fill:#1a1a1a;fill-opacity:1;fill-rule:nonzero;stroke:none;font-family:Liberation Sans;-inkscape-font-specification:LiberationSans">-0</tspan></text>
</g><g
           id="g316"><path
             d="m 216,169.2 -28.8,0 0,18 57.6,0 0,-18 -28.8,0 z"
             inkscape:connector-curvature="0"
             id="path318"
             style="fill:none;stroke:#000000;stroke-width:0.70749998;stroke-linecap:butt;stroke-linejoin:round;stroke-miterlimit:10;stroke-opacity:1;stroke-dasharray:none" /></g><g
           id="g320"><text
             transform="matrix(1,0,0,-1,211.6,174.8)"
             id="text322"><tspan
               x="0 3.3900001"
               y="0"
               id="tspan324"
               style="font-size:10px;font-variant:normal;font-weight:normal;writing-mode:lr-tb;fill:#1a1a1a;fill-opacity:1;fill-rule:nonzero;stroke:none;font-family:Liberation Sans;-inkscape-font-specification:LiberationSans">-0</tspan></text>
</g><g
           id="g326"><path
             d="m 273.6,151.2 -28.8,0 0,18 57.6,0 0,-18 -28.8,0 z"
             inkscape:connector-curvature="0"
             id="path328"
             style="fill:none;stroke:#000000;stroke-width:0.70749998;stroke-linecap:butt;stroke-linejoin:round;stroke-miterlimit:10;stroke-opacity:1;stroke-dasharray:none" /></g><g
           id="g330"><text
             transform="matrix(1,0,0,-1,269.2,156.8)"
             id="text332"><tspan
               x="0 3.3900001"
               y="0"
               id="tspan334"
               style="font-size:10px;font-variant:normal;font-weight:normal;writing-mode:lr-tb;fill:#1a1a1a;fill-opacity:1;fill-rule:nonzero;stroke:none;font-family:Liberation Sans;-inkscape-font-specification:LiberationSans">-0</tspan></text>
</g><g
           id="g336"><path
             d="m 216,133.2 -28.8,0 0,18 57.6,0 0,-18 -28.8,0 z"
             inkscape:connector-curvature="0"
             id="path338"
             style="fill:none;stroke:#000000;stroke-width:0.70749998;stroke-linecap:butt;stroke-linejoin:round;stroke-miterlimit:10;stroke-opacity:1;stroke-dasharray:none" /></g><g
           id="g340"><text
             transform="matrix(1,0,0,-1,211.6,138.8)"
             id="text342"><tspan
               x="0 3.3900001"
               y="0"
               id="tspan344"
               style="font-size:10px;font-variant:normal;font-weight:normal;writing-mode:lr-tb;fill:#1a1a1a;fill-opacity:1;fill-rule:nonzero;stroke:none;font-family:Liberation Sans;-inkscape-font-specification:LiberationSans">-0</tspan></text>
</g><g
           id="g346"><path
             d="m 216,151.2 -28.8,0 0,18 57.6,0 0,-18 -28.8,0 z"
             inkscape:connector-curvature="0"
             id="path348"
             style="fill:none;stroke:#000000;stroke-width:0.70749998;stroke-linecap:butt;stroke-linejoin:round;stroke-miterlimit:10;stroke-opacity:1;stroke-dasharray:none" /></g><g
           id="g350"><text
             transform="matrix(1,0,0,-1,210.4,156.8)"
             id="text352"><tspan
               x="0 5.6999998"
               y="0"
               id="tspan354"
               style="font-size:10px;font-variant:normal;font-weight:normal;writing-mode:lr-tb;fill:#1a1a1a;fill-opacity:1;fill-rule:nonzero;stroke:none;font-family:Liberation Sans;-inkscape-font-specification:LiberationSans">+0</tspan></text>
</g><g
           id="g356"><path
             d="m 273.6,133.2 -28.8,0 0,18 57.6,0 0,-18 -28.8,0 z"
             inkscape:connector-curvature="0"
             id="path358"
             style="fill:none;stroke:#000000;stroke-width:0.70749998;stroke-linecap:butt;stroke-linejoin:round;stroke-miterlimit:10;stroke-opacity:1;stroke-dasharray:none" /></g><g
           id="g360"><text
             transform="matrix(1,0,0,-1,268,138.8)"
             id="text362"><tspan
               x="0 5.6999998"
               y="0"
               id="tspan364"
               style="font-size:10px;font-variant:normal;font-weight:normal;writing-mode:lr-tb;fill:#1a1a1a;fill-opacity:1;fill-rule:nonzero;stroke:none;font-family:Liberation Sans;-inkscape-font-specification:LiberationSans">+0</tspan></text>
</g><g
           id="g366"><path
             d="m 100.8,151.2 -28.8,0 0,18 57.6,0 0,-18 -28.8,0 z"
             inkscape:connector-curvature="0"
             id="path368"
             style="fill:none;stroke:#000000;stroke-width:0.70749998;stroke-linecap:butt;stroke-linejoin:round;stroke-miterlimit:10;stroke-opacity:1;stroke-dasharray:none" /></g><g
           id="g370"><text
             transform="matrix(1,0,0,-1,95.2,156.8)"
             id="text372"><tspan
               x="0 5.6999998"
               y="0"
               id="tspan374"
               style="font-size:10px;font-variant:normal;font-weight:normal;writing-mode:lr-tb;fill:#1a1a1a;fill-opacity:1;fill-rule:nonzero;stroke:none;font-family:Liberation Sans;-inkscape-font-specification:LiberationSans">+0</tspan></text>
</g><g
           id="g376"><path
             d="m 158.4,133.2 -28.8,0 0,18 57.6,0 0,-18 -28.8,0 z"
             inkscape:connector-curvature="0"
             id="path378"
             style="fill:none;stroke:#000000;stroke-width:0.70749998;stroke-linecap:butt;stroke-linejoin:round;stroke-miterlimit:10;stroke-opacity:1;stroke-dasharray:none" /></g><g
           id="g380"><text
             transform="matrix(1,0,0,-1,152.8,138.8)"
             id="text382"><tspan
               x="0 5.6999998"
               y="0"
               id="tspan384"
               style="font-size:10px;font-variant:normal;font-weight:normal;writing-mode:lr-tb;fill:#1a1a1a;fill-opacity:1;fill-rule:nonzero;stroke:none;font-family:Liberation Sans;-inkscape-font-specification:LiberationSans">+0</tspan></text>
</g><g
           id="g386"><path
             d="m 100.8,133.2 -28.8,0 0,18 57.6,0 0,-18 -28.8,0 z"
             inkscape:connector-curvature="0"
             id="path388"
             style="fill:none;stroke:#000000;stroke-width:0.70749998;stroke-linecap:butt;stroke-linejoin:round;stroke-miterlimit:10;stroke-opacity:1;stroke-dasharray:none" /></g><g
           id="g390"><text
             transform="matrix(1,0,0,-1,96.4,138.8)"
             id="text392"><tspan
               x="0 3.3900001"
               y="0"
               id="tspan394"
               style="font-size:10px;font-variant:normal;font-weight:normal;writing-mode:lr-tb;fill:#1a1a1a;fill-opacity:1;fill-rule:nonzero;stroke:none;font-family:Liberation Sans;-inkscape-font-specification:LiberationSans">-0</tspan></text>
</g><g
           id="g396"><path
             d="m 158.4,151.2 -28.8,0 0,18 57.6,0 0,-18 -28.8,0 z"
             inkscape:connector-curvature="0"
             id="path398"
             style="fill:none;stroke:#000000;stroke-width:0.70749998;stroke-linecap:butt;stroke-linejoin:round;stroke-miterlimit:10;stroke-opacity:1;stroke-dasharray:none" /></g><g
           id="g400"><text
             transform="matrix(1,0,0,-1,154,156.8)"
             id="text402"><tspan
               x="0 3.3900001"
               y="0"
               id="tspan404"
               style="font-size:10px;font-variant:normal;font-weight:normal;writing-mode:lr-tb;fill:#1a1a1a;fill-opacity:1;fill-rule:nonzero;stroke:none;font-family:Liberation Sans;-inkscape-font-specification:LiberationSans">-0</tspan></text>
</g><g
           id="g406"><path
             d="m 331.2,169.2 -28.8,0 0,18 57.6,0 0,-18 -28.8,0 z"
             inkscape:connector-curvature="0"
             id="path408"
             style="fill:none;stroke:#000000;stroke-width:0.70749998;stroke-linecap:butt;stroke-linejoin:round;stroke-miterlimit:10;stroke-opacity:1;stroke-dasharray:none" /></g><g
           id="g410"><text
             transform="matrix(1,0,0,-1,324.3,174.8)"
             id="text412"><tspan
               x="0 3.3900001 5.4899998 10.99"
               y="0"
               id="tspan414"
               style="font-size:10px;font-variant:normal;font-weight:normal;writing-mode:lr-tb;fill:#1a1a1a;fill-opacity:1;fill-rule:nonzero;stroke:none;font-family:Liberation Sans;-inkscape-font-specification:LiberationSans">-inf</tspan></text>
</g><g
           id="g416"><path
             d="m 388.8,187.2 -28.8,0 0,18 57.6,0 0,-18 -28.8,0 z"
             inkscape:connector-curvature="0"
             id="path418"
             style="fill:none;stroke:#000000;stroke-width:0.70749998;stroke-linecap:butt;stroke-linejoin:round;stroke-miterlimit:10;stroke-opacity:1;stroke-dasharray:none" /></g><g
           id="g420"><text
             transform="matrix(1,0,0,-1,381.9,192.8)"
             id="text422"><tspan
               x="0 3.3900001 5.4899998 10.99"
               y="0"
               id="tspan424"
               style="font-size:10px;font-variant:normal;font-weight:normal;writing-mode:lr-tb;fill:#1a1a1a;fill-opacity:1;fill-rule:nonzero;stroke:none;font-family:Liberation Sans;-inkscape-font-specification:LiberationSans">-inf</tspan></text>
</g><g
           id="g426"><path
             d="m 331.2,187.2 -28.8,0 0,18 57.6,0 0,-18 -28.8,0 z"
             inkscape:connector-curvature="0"
             id="path428"
             style="fill:none;stroke:#000000;stroke-width:0.70749998;stroke-linecap:butt;stroke-linejoin:round;stroke-miterlimit:10;stroke-opacity:1;stroke-dasharray:none" /></g><g
           id="g430"><text
             transform="matrix(1,0,0,-1,323.1,192.8)"
             id="text432"><tspan
               x="0 5.6999998 7.9000001 13.4"
               y="0"
               id="tspan434"
               style="font-size:10px;font-variant:normal;font-weight:normal;writing-mode:lr-tb;fill:#1a1a1a;fill-opacity:1;fill-rule:nonzero;stroke:none;font-family:Liberation Sans;-inkscape-font-specification:LiberationSans">+inf</tspan></text>
</g><g
           id="g436"><path
             d="m 388.8,169.2 -28.8,0 0,18 57.6,0 0,-18 -28.8,0 z"
             inkscape:connector-curvature="0"
             id="path438"
             style="fill:none;stroke:#000000;stroke-width:0.70749998;stroke-linecap:butt;stroke-linejoin:round;stroke-miterlimit:10;stroke-opacity:1;stroke-dasharray:none" /></g><g
           id="g440"><text
             transform="matrix(1,0,0,-1,380.7,174.8)"
             id="text442"><tspan
               x="0 5.6999998 7.9000001 13.4"
               y="0"
               id="tspan444"
               style="font-size:10px;font-variant:normal;font-weight:normal;writing-mode:lr-tb;fill:#1a1a1a;fill-opacity:1;fill-rule:nonzero;stroke:none;font-family:Liberation Sans;-inkscape-font-specification:LiberationSans">+inf</tspan></text>
</g><g
           id="g446"><path
             d="m 331.2,115.2 -28.8,0 0,18 57.6,0 0,-18 -28.8,0 z"
             inkscape:connector-curvature="0"
             id="path448"
             style="fill:none;stroke:#000000;stroke-width:0.70749998;stroke-linecap:butt;stroke-linejoin:round;stroke-miterlimit:10;stroke-opacity:1;stroke-dasharray:none" /></g><g
           id="g450"><text
             transform="matrix(1,0,0,-1,323.1,120.8)"
             id="text452"><tspan
               x="0 5.6999998 7.9000001 13.4"
               y="0"
               id="tspan454"
               style="font-size:10px;font-variant:normal;font-weight:normal;writing-mode:lr-tb;fill:#1a1a1a;fill-opacity:1;fill-rule:nonzero;stroke:none;font-family:Liberation Sans;-inkscape-font-specification:LiberationSans">+inf</tspan></text>
</g><g
           id="g456"><path
             d="m 388.8,97.2 -28.8,0 0,18 57.6,0 0,-18 -28.8,0 z"
             inkscape:connector-curvature="0"
             id="path458"
             style="fill:none;stroke:#000000;stroke-width:0.70749998;stroke-linecap:butt;stroke-linejoin:round;stroke-miterlimit:10;stroke-opacity:1;stroke-dasharray:none" /></g><g
           id="g460"><text
             transform="matrix(1,0,0,-1,380.7,102.8)"
             id="text462"><tspan
               x="0 5.6999998 7.9000001 13.4"
               y="0"
               id="tspan464"
               style="font-size:10px;font-variant:normal;font-weight:normal;writing-mode:lr-tb;fill:#1a1a1a;fill-opacity:1;fill-rule:nonzero;stroke:none;font-family:Liberation Sans;-inkscape-font-specification:LiberationSans">+inf</tspan></text>
</g><g
           id="g466"><path
             d="m 388.8,115.2 -28.8,0 0,18 57.6,0 0,-18 -28.8,0 z"
             inkscape:connector-curvature="0"
             id="path468"
             style="fill:none;stroke:#000000;stroke-width:0.70749998;stroke-linecap:butt;stroke-linejoin:round;stroke-miterlimit:10;stroke-opacity:1;stroke-dasharray:none" /></g><g
           id="g470"><text
             transform="matrix(1,0,0,-1,381.9,120.8)"
             id="text472"><tspan
               x="0 3.3900001 5.4899998 10.99"
               y="0"
               id="tspan474"
               style="font-size:10px;font-variant:normal;font-weight:normal;writing-mode:lr-tb;fill:#1a1a1a;fill-opacity:1;fill-rule:nonzero;stroke:none;font-family:Liberation Sans;-inkscape-font-specification:LiberationSans">-inf</tspan></text>
</g><g
           id="g476"><path
             d="m 331.2,97.2 -28.8,0 0,18 57.6,0 0,-18 -28.8,0 z"
             inkscape:connector-curvature="0"
             id="path478"
             style="fill:none;stroke:#000000;stroke-width:0.70749998;stroke-linecap:butt;stroke-linejoin:round;stroke-miterlimit:10;stroke-opacity:1;stroke-dasharray:none" /></g><g
           id="g480"><text
             transform="matrix(1,0,0,-1,324.3,102.8)"
             id="text482"><tspan
               x="0 3.3900001 5.4899998 10.99"
               y="0"
               id="tspan484"
               style="font-size:10px;font-variant:normal;font-weight:normal;writing-mode:lr-tb;fill:#1a1a1a;fill-opacity:1;fill-rule:nonzero;stroke:none;font-family:Liberation Sans;-inkscape-font-specification:LiberationSans">-inf</tspan></text>
</g><g
           id="g486"><path
             d="m 417.6,97.2 0,108"
             inkscape:connector-curvature="0"
             id="path488"
             style="fill:none;stroke:#000000;stroke-width:0.70749998;stroke-linecap:butt;stroke-linejoin:round;stroke-miterlimit:10;stroke-opacity:1;stroke-dasharray:none" /></g><g
           id="g490"><path
             d="m 158.4,115.2 -28.8,0 0,18 57.6,0 0,-18 -28.8,0 z"
             inkscape:connector-curvature="0"
             id="path492"
             style="fill:none;stroke:#000000;stroke-width:0.70749998;stroke-linecap:butt;stroke-linejoin:round;stroke-miterlimit:10;stroke-opacity:1;stroke-dasharray:none" /></g><g
           id="g494"><text
             transform="matrix(1,0,0,-1,151.5,120.8)"
             id="text496"><tspan
               x="0 3.3900001 5.4899998 10.99"
               y="0"
               id="tspan498"
               style="font-size:10px;font-variant:normal;font-weight:normal;writing-mode:lr-tb;fill:#1a1a1a;fill-opacity:1;fill-rule:nonzero;stroke:none;font-family:Liberation Sans;-inkscape-font-specification:LiberationSans">-inf</tspan></text>
</g><g
           id="g500"><path
             d="m 100.8,97.2 -28.8,0 0,18 57.6,0 0,-18 -28.8,0 z"
             inkscape:connector-curvature="0"
             id="path502"
             style="fill:none;stroke:#000000;stroke-width:0.70749998;stroke-linecap:butt;stroke-linejoin:round;stroke-miterlimit:10;stroke-opacity:1;stroke-dasharray:none" /></g><g
           id="g504"><text
             transform="matrix(1,0,0,-1,93.9,102.8)"
             id="text506"><tspan
               x="0 3.3900001 5.4899998 10.99"
               y="0"
               id="tspan508"
               style="font-size:10px;font-variant:normal;font-weight:normal;writing-mode:lr-tb;fill:#1a1a1a;fill-opacity:1;fill-rule:nonzero;stroke:none;font-family:Liberation Sans;-inkscape-font-specification:LiberationSans">-inf</tspan></text>
</g><g
           id="g510"><path
             d="m 100.8,115.2 -28.8,0 0,18 57.6,0 0,-18 -28.8,0 z"
             inkscape:connector-curvature="0"
             id="path512"
             style="fill:none;stroke:#000000;stroke-width:0.70749998;stroke-linecap:butt;stroke-linejoin:round;stroke-miterlimit:10;stroke-opacity:1;stroke-dasharray:none" /></g><g
           id="g514"><text
             transform="matrix(1,0,0,-1,92.7,120.8)"
             id="text516"><tspan
               x="0 5.6999998 7.9000001 13.4"
               y="0"
               id="tspan518"
               style="font-size:10px;font-variant:normal;font-weight:normal;writing-mode:lr-tb;fill:#1a1a1a;fill-opacity:1;fill-rule:nonzero;stroke:none;font-family:Liberation Sans;-inkscape-font-specification:LiberationSans">+inf</tspan></text>
</g><g
           id="g520"><path
             d="m 158.4,97.2 -28.8,0 0,18 57.6,0 0,-18 -28.8,0 z"
             inkscape:connector-curvature="0"
             id="path522"
             style="fill:none;stroke:#000000;stroke-width:0.70749998;stroke-linecap:butt;stroke-linejoin:round;stroke-miterlimit:10;stroke-opacity:1;stroke-dasharray:none" /></g><g
           id="g524"><text
             transform="matrix(1,0,0,-1,150.3,102.8)"
             id="text526"><tspan
               x="0 5.6999998 7.9000001 13.4"
               y="0"
               id="tspan528"
               style="font-size:10px;font-variant:normal;font-weight:normal;writing-mode:lr-tb;fill:#1a1a1a;fill-opacity:1;fill-rule:nonzero;stroke:none;font-family:Liberation Sans;-inkscape-font-specification:LiberationSans">+inf</tspan></text>
</g></g></g></g></svg>
