<?xml version="1.0" encoding="UTF-8" standalone="no"?>
<!-- Created with Inkscape (http://www.inkscape.org/) -->

<svg
   xmlns:dc="http://purl.org/dc/elements/1.1/"
   xmlns:cc="http://creativecommons.org/ns#"
   xmlns:rdf="http://www.w3.org/1999/02/22-rdf-syntax-ns#"
   xmlns:svg="http://www.w3.org/2000/svg"
   xmlns="http://www.w3.org/2000/svg"
   xmlns:inkscape="http://www.inkscape.org/namespaces/inkscape"
   version="1.1"
   width="675"
   height="135"
   id="svg2"
   xml:space="preserve"><metadata
     id="metadata8"><rdf:RDF><cc:Work
         rdf:about=""><dc:format>image/svg+xml</dc:format><dc:type
           rdf:resource="http://purl.org/dc/dcmitype/StillImage" /></cc:Work></rdf:RDF></metadata><defs
     id="defs6"><clipPath
       id="clipPath16"><path
         d="M 0,0 540,0 540,108 0,108 0,0 z"
         inkscape:connector-curvature="0"
         id="path18" /></clipPath></defs><g
     transform="matrix(1.25,0,0,-1.25,0,135)"
     id="g10"><g
       id="g12"><g
         clip-path="url(#clipPath16)"
         id="g14"><path
           d="M 0,108 540,108 540,0 0,0 0,108 z"
           inkscape:connector-curvature="0"
           id="path20"
           style="fill:#ffffff;fill-opacity:0;fill-rule:evenodd;stroke:none" /><g
           id="g22"><path
             d="m 468,43.2 -21.6,0 0,18 43.2,0 0,-18 -21.6,0 z"
             inkscape:connector-curvature="0"
             id="path24"
             style="fill:none;stroke:#000000;stroke-width:0.70749998;stroke-linecap:butt;stroke-linejoin:round;stroke-miterlimit:10;stroke-opacity:1;stroke-dasharray:none" /></g><g
           id="g26"><text
             transform="matrix(1,0,0,-1,453.8,48.8)"
             id="text28"><tspan
               x="0 5.5900002 12.79 18.290001"
               y="0"
               id="tspan30"
               style="font-size:10px;font-variant:normal;font-weight:normal;writing-mode:lr-tb;fill:#1a1a1a;fill-opacity:1;fill-rule:nonzero;stroke:none;font-family:Liberation Sans;-inkscape-font-specification:LiberationSans">qNaN</tspan></text>
</g><g
           id="g32"><path
             d="m 95.4,43.2 -23.4,0 0,18 46.8,0 0,-18 -23.4,0 z"
             inkscape:connector-curvature="0"
             id="path34"
             style="fill:none;stroke:#000000;stroke-width:0.70749998;stroke-linecap:butt;stroke-linejoin:round;stroke-miterlimit:10;stroke-opacity:1;stroke-dasharray:none" /></g><g
           id="g36"><text
             transform="matrix(1,0,0,-1,77.4,48.8)"
             id="text38"><tspan
               x="0 5.5 8.29 14.89 22.68 29.780001"
               y="0"
               id="tspan40"
               style="font-size:10px;font-variant:normal;font-weight:normal;writing-mode:lr-tb;fill:#1a1a1a;fill-opacity:1;fill-rule:nonzero;stroke:none;font-family:Liberation Sans;-inkscape-font-specification:LiberationSans">1/SQRT</tspan></text>
</g><g
           id="g42"><path
             d="m 43.2,43.2 -28.8,0 0,18 57.6,0 0,-18 -28.8,0 z"
             inkscape:connector-curvature="0"
             id="path44"
             style="fill:none;stroke:#000000;stroke-width:0.70749998;stroke-linecap:butt;stroke-linejoin:round;stroke-miterlimit:10;stroke-opacity:1;stroke-dasharray:none" /></g><g
           id="g46"><text
             transform="matrix(1,0,0,-1,19.1,48.8)"
             id="text48"><tspan
               x="0 6.1900001 12.79 19.99 27.190001 33.09 35.880001 39.27 44.77"
               y="0"
               id="tspan50"
               style="font-size:10px;font-variant:normal;font-weight:normal;writing-mode:lr-tb;fill:#1a1a1a;fill-opacity:1;fill-rule:nonzero;stroke:none;font-family:Liberation Sans;-inkscape-font-specification:LiberationSans">FSRRA (n)</tspan></text>
</g><g
           id="g52"><path
             d="m 95.4,61.2 -23.4,0 0,18 46.8,0 0,-18 -23.4,0 z"
             inkscape:connector-curvature="0"
             id="path54"
             style="fill:none;stroke:#000000;stroke-width:0.70749998;stroke-linecap:butt;stroke-linejoin:round;stroke-miterlimit:10;stroke-opacity:1;stroke-dasharray:none" /></g><g
           id="g56"><text
             transform="matrix(1,0,0,-1,77.2,66.8)"
             id="text58"><tspan
               x="0 5.8000002 13 20.790001 27.99"
               y="0"
               id="tspan60"
               style="font-size:10px;font-variant:normal;font-weight:normal;writing-mode:lr-tb;fill:#1a1a1a;fill-opacity:1;fill-rule:nonzero;stroke:none;font-family:Liberation Sans;-inkscape-font-specification:LiberationSans">+NORM</tspan></text>
</g><g
           id="g62"><path
             d="m 142.2,61.2 -23.4,0 0,18 46.8,0 0,-18 -23.4,0 z"
             inkscape:connector-curvature="0"
             id="path64"
             style="fill:none;stroke:#000000;stroke-width:0.70749998;stroke-linecap:butt;stroke-linejoin:round;stroke-miterlimit:10;stroke-opacity:1;stroke-dasharray:none" /></g><g
           id="g66"><text
             transform="matrix(1,0,0,-1,125.2,66.8)"
             id="text68"><tspan
               x="0 3.3900001 10.59 18.379999 25.58"
               y="0"
               id="tspan70"
               style="font-size:10px;font-variant:normal;font-weight:normal;writing-mode:lr-tb;fill:#1a1a1a;fill-opacity:1;fill-rule:nonzero;stroke:none;font-family:Liberation Sans;-inkscape-font-specification:LiberationSans">-NORM</tspan></text>
</g><g
           id="g72"><path
             d="m 295.2,61.2 -21.6,0 0,18 43.2,0 0,-18 -21.6,0 z"
             inkscape:connector-curvature="0"
             id="path74"
             style="fill:none;stroke:#000000;stroke-width:0.70749998;stroke-linecap:butt;stroke-linejoin:round;stroke-miterlimit:10;stroke-opacity:1;stroke-dasharray:none" /></g><g
           id="g76"><text
             transform="matrix(1,0,0,-1,289.6,66.8)"
             id="text78"><tspan
               x="0 5.6999998"
               y="0"
               id="tspan80"
               style="font-size:10px;font-variant:normal;font-weight:normal;writing-mode:lr-tb;fill:#1a1a1a;fill-opacity:1;fill-rule:nonzero;stroke:none;font-family:Liberation Sans;-inkscape-font-specification:LiberationSans">+0</tspan></text>
</g><g
           id="g82"><path
             d="m 338.4,61.2 -21.6,0 0,18 43.2,0 0,-18 -21.6,0 z"
             inkscape:connector-curvature="0"
             id="path84"
             style="fill:none;stroke:#000000;stroke-width:0.70749998;stroke-linecap:butt;stroke-linejoin:round;stroke-miterlimit:10;stroke-opacity:1;stroke-dasharray:none" /></g><g
           id="g86"><text
             transform="matrix(1,0,0,-1,334,66.8)"
             id="text88"><tspan
               x="0 3.3900001"
               y="0"
               id="tspan90"
               style="font-size:10px;font-variant:normal;font-weight:normal;writing-mode:lr-tb;fill:#1a1a1a;fill-opacity:1;fill-rule:nonzero;stroke:none;font-family:Liberation Sans;-inkscape-font-specification:LiberationSans">-0</tspan></text>
</g><g
           id="g92"><path
             d="m 381.6,61.2 -21.6,0 0,18 43.2,0 0,-18 -21.6,0 z"
             inkscape:connector-curvature="0"
             id="path94"
             style="fill:none;stroke:#000000;stroke-width:0.70749998;stroke-linecap:butt;stroke-linejoin:round;stroke-miterlimit:10;stroke-opacity:1;stroke-dasharray:none" /></g><g
           id="g96"><text
             transform="matrix(1,0,0,-1,373.5,66.8)"
             id="text98"><tspan
               x="0 5.6999998 7.9000001 13.4"
               y="0"
               id="tspan100"
               style="font-size:10px;font-variant:normal;font-weight:normal;writing-mode:lr-tb;fill:#1a1a1a;fill-opacity:1;fill-rule:nonzero;stroke:none;font-family:Liberation Sans;-inkscape-font-specification:LiberationSans">+inf</tspan></text>
</g><g
           id="g102"><path
             d="m 424.8,61.2 -21.6,0 0,18 43.2,0 0,-18 -21.6,0 z"
             inkscape:connector-curvature="0"
             id="path104"
             style="fill:none;stroke:#000000;stroke-width:0.70749998;stroke-linecap:butt;stroke-linejoin:round;stroke-miterlimit:10;stroke-opacity:1;stroke-dasharray:none" /></g><g
           id="g106"><text
             transform="matrix(1,0,0,-1,417.9,66.8)"
             id="text108"><tspan
               x="0 3.3900001 5.4899998 10.99"
               y="0"
               id="tspan110"
               style="font-size:10px;font-variant:normal;font-weight:normal;writing-mode:lr-tb;fill:#1a1a1a;fill-opacity:1;fill-rule:nonzero;stroke:none;font-family:Liberation Sans;-inkscape-font-specification:LiberationSans">-inf</tspan></text>
</g><g
           id="g112"><path
             d="m 302.4,79.2 -230.4,0 0,18 460.8,0 0,-18 -230.4,0 z"
             inkscape:connector-curvature="0"
             id="path114"
             style="fill:none;stroke:#000000;stroke-width:0.70749998;stroke-linecap:butt;stroke-linejoin:round;stroke-miterlimit:10;stroke-opacity:1;stroke-dasharray:none" /></g><g
           id="g116"><text
             transform="matrix(1,0,0,-1,299.7,84.8)"
             id="text118"><tspan
               x="0"
               y="0"
               id="tspan120"
               style="font-size:10px;font-variant:normal;font-weight:normal;writing-mode:lr-tb;fill:#1a1a1a;fill-opacity:1;fill-rule:nonzero;stroke:none;font-family:Liberation Sans;-inkscape-font-specification:LiberationSans">n</tspan></text>
</g><g
           id="g122"><path
             d="m 468,61.2 -21.6,0 0,18 43.2,0 0,-18 -21.6,0 z"
             inkscape:connector-curvature="0"
             id="path124"
             style="fill:none;stroke:#000000;stroke-width:0.70749998;stroke-linecap:butt;stroke-linejoin:round;stroke-miterlimit:10;stroke-opacity:1;stroke-dasharray:none" /></g><g
           id="g126"><text
             transform="matrix(1,0,0,-1,455.3,66.8)"
             id="text128"><tspan
               x="0 5.5 12.7 18.200001"
               y="0"
               id="tspan130"
               style="font-size:10px;font-variant:normal;font-weight:normal;writing-mode:lr-tb;fill:#1a1a1a;fill-opacity:1;fill-rule:nonzero;stroke:none;font-family:Liberation Sans;-inkscape-font-specification:LiberationSans">qNaN</tspan></text>
</g><g
           id="g132"><path
             d="m 511.2,61.2 -21.6,0 0,18 43.2,0 0,-18 -21.6,0 z"
             inkscape:connector-curvature="0"
             id="path134"
             style="fill:none;stroke:#000000;stroke-width:0.70749998;stroke-linecap:butt;stroke-linejoin:round;stroke-miterlimit:10;stroke-opacity:1;stroke-dasharray:none" /></g><g
           id="g136"><text
             transform="matrix(1,0,0,-1,498.7,66.8)"
             id="text138"><tspan
               x="0 5.0900002 12.29 17.790001"
               y="0"
               id="tspan140"
               style="font-size:10px;font-variant:normal;font-weight:normal;writing-mode:lr-tb;fill:#1a1a1a;fill-opacity:1;fill-rule:nonzero;stroke:none;font-family:Liberation Sans;-inkscape-font-specification:LiberationSans">sNaN</tspan></text>
</g><g
           id="g142"><text
             transform="matrix(1,0,0,-1,21.5,26.1)"
             id="text144"><tspan
               x="0 7.8979998 14.003 17.094 23.287001"
               y="0"
               id="tspan146"
               style="font-size:11px;font-variant:normal;font-weight:normal;writing-mode:lr-tb;fill:#1a1a1a;fill-opacity:1;fill-rule:nonzero;stroke:none;font-family:Liberation Sans;-inkscape-font-specification:LiberationSans">Note:</tspan></text>
</g><g
           id="g148"><text
             transform="matrix(1,0,0,-1,57.5,26.1)"
             id="text150"><tspan
               x="0 10.384 16.489 22.681999 28.787001 31.878 39.776001 47.762001 50.853001 57.342999 60.433998 66.539001 69.629997 72.721001 75.911003 82.015999 88.121002 91.211998 96.711998 102.817 105.303 111.408 117.513 120.604 126.709 129.899 132.99001 139.095 142.186 148.291 154.48399 160.589 166.694 170.379 179.66299 185.76801 188.166 190.564 196.064 202.16901 208.274 211.36501 217.558 223.66299 232.84801 238.953 245.146 248.83099 251.922 254.32001 259.82001 263.01001 266.10101 269.78601 275.89099 281.996 285.186 291.29099 297.396 300.487 306.59201 312.09201 315.28201 321.38699"
               y="0"
               id="tspan152"
               style="font-size:11px;font-variant:normal;font-weight:normal;writing-mode:lr-tb;fill:#1a1a1a;fill-opacity:1;fill-rule:nonzero;stroke:none;font-family:Liberation Sans;-inkscape-font-specification:LiberationSans">When DN = 1, the value of a denormalized number is treated as 0.</tspan></text>
</g><g
           id="g154"><path
             d="m 295.2,43.2 -21.6,0 0,18 43.2,0 0,-18 -21.6,0 z"
             inkscape:connector-curvature="0"
             id="path156"
             style="fill:none;stroke:#000000;stroke-width:0.70749998;stroke-linecap:butt;stroke-linejoin:round;stroke-miterlimit:10;stroke-opacity:1;stroke-dasharray:none" /></g><g
           id="g158"><text
             transform="matrix(1,0,0,-1,288.5,48.8)"
             id="text160"><tspan
               x="0 7.1999998"
               y="0"
               id="tspan162"
               style="font-size:10px;font-variant:normal;font-weight:normal;writing-mode:lr-tb;fill:#1a1a1a;fill-opacity:1;fill-rule:nonzero;stroke:none;font-family:Liberation Sans;-inkscape-font-specification:LiberationSans">DZ</tspan></text>
</g><g
           id="g164"><path
             d="m 338.4,43.2 -21.6,0 0,18 43.2,0 0,-18 -21.6,0 z"
             inkscape:connector-curvature="0"
             id="path166"
             style="fill:none;stroke:#000000;stroke-width:0.70749998;stroke-linecap:butt;stroke-linejoin:round;stroke-miterlimit:10;stroke-opacity:1;stroke-dasharray:none" /></g><g
           id="g168"><text
             transform="matrix(1,0,0,-1,331.7,48.8)"
             id="text170"><tspan
               x="0 7.1999998"
               y="0"
               id="tspan172"
               style="font-size:10px;font-variant:normal;font-weight:normal;writing-mode:lr-tb;fill:#1a1a1a;fill-opacity:1;fill-rule:nonzero;stroke:none;font-family:Liberation Sans;-inkscape-font-specification:LiberationSans">DZ</tspan></text>
</g><g
           id="g174"><path
             d="m 192.6,61.2 -27,0 0,18 54,0 0,-18 -27,0 z"
             inkscape:connector-curvature="0"
             id="path176"
             style="fill:none;stroke:#000000;stroke-width:0.70749998;stroke-linecap:butt;stroke-linejoin:round;stroke-miterlimit:10;stroke-opacity:1;stroke-dasharray:none" /></g><g
           id="g178"><text
             transform="matrix(1,0,0,-1,167.6,66.8)"
             id="text180"><tspan
               x="0 5.6999998 12.9 19.5 26.700001 34.490002 41.689999"
               y="0"
               id="tspan182"
               style="font-size:10px;font-variant:normal;font-weight:normal;writing-mode:lr-tb;fill:#1a1a1a;fill-opacity:1;fill-rule:nonzero;stroke:none;font-family:Liberation Sans;-inkscape-font-specification:LiberationSans">+DENORM</tspan></text>
</g><g
           id="g184"><path
             d="m 246.6,61.2 -27,0 0,18 54,0 0,-18 -27,0 z"
             inkscape:connector-curvature="0"
             id="path186"
             style="fill:none;stroke:#000000;stroke-width:0.70749998;stroke-linecap:butt;stroke-linejoin:round;stroke-miterlimit:10;stroke-opacity:1;stroke-dasharray:none" /></g><g
           id="g188"><text
             transform="matrix(1,0,0,-1,222.7,66.8)"
             id="text190"><tspan
               x="0 3.3900001 10.59 17.190001 24.389999 32.18 39.380001"
               y="0"
               id="tspan192"
               style="font-size:10px;font-variant:normal;font-weight:normal;writing-mode:lr-tb;fill:#1a1a1a;fill-opacity:1;fill-rule:nonzero;stroke:none;font-family:Liberation Sans;-inkscape-font-specification:LiberationSans">-DENORM</tspan></text>
</g><g
           id="g194"><path
             d="m 381.6,43.2 -21.6,0 0,18 43.2,0 0,-18 -21.6,0 z"
             inkscape:connector-curvature="0"
             id="path196"
             style="fill:none;stroke:#000000;stroke-width:0.70749998;stroke-linecap:butt;stroke-linejoin:round;stroke-miterlimit:10;stroke-opacity:1;stroke-dasharray:none" /></g><g
           id="g198"><text
             transform="matrix(1,0,0,-1,373.5,48.8)"
             id="text200"><tspan
               x="0 5.6999998 7.9000001 13.4"
               y="0"
               id="tspan202"
               style="font-size:10px;font-variant:normal;font-weight:normal;writing-mode:lr-tb;fill:#1a1a1a;fill-opacity:1;fill-rule:nonzero;stroke:none;font-family:Liberation Sans;-inkscape-font-specification:LiberationSans">+inf</tspan></text>
</g><path
           d="m 511.2,43.2 -21.6,0 0,18 43.2,0 0,-18 -21.6,0 z"
           inkscape:connector-curvature="0"
           id="path204"
           style="fill:#b3b3b3;fill-opacity:1;fill-rule:evenodd;stroke:none" /><g
           id="g206"><path
             d="m 511.2,43.2 -21.6,0 0,18 43.2,0 0,-18 -21.6,0 z"
             inkscape:connector-curvature="0"
             id="path208"
             style="fill:none;stroke:#000000;stroke-width:0.70749998;stroke-linecap:butt;stroke-linejoin:round;stroke-miterlimit:10;stroke-opacity:1;stroke-dasharray:none" /></g><g
           id="g210"><text
             transform="matrix(1,0,0,-1,496.9,49.6)"
             id="text212"><tspan
               x="0 2.2 7.6999998 12.7 18.200001 20.4 22.6"
               y="0"
               id="tspan214"
               style="font-size:10px;font-variant:normal;font-weight:normal;writing-mode:lr-tb;fill:#1a1a1a;fill-opacity:1;fill-rule:nonzero;stroke:none;font-family:Liberation Sans;-inkscape-font-specification:LiberationSans">invalid</tspan></text>
</g><g
           id="g216"><path
             d="m 72,61.2 0,-18"
             inkscape:connector-curvature="0"
             id="path218"
             style="fill:none;stroke:#000000;stroke-width:2.15078998;stroke-linecap:butt;stroke-linejoin:round;stroke-miterlimit:10;stroke-opacity:1;stroke-dasharray:none" /></g><path
           d="m 142.2,43.2 -23.4,0 0,18 46.8,0 0,-18 -23.4,0 z"
           inkscape:connector-curvature="0"
           id="path220"
           style="fill:#b3b3b3;fill-opacity:1;fill-rule:evenodd;stroke:none" /><g
           id="g222"><path
             d="m 142.2,43.2 -23.4,0 0,18 46.8,0 0,-18 -23.4,0 z"
             inkscape:connector-curvature="0"
             id="path224"
             style="fill:none;stroke:#000000;stroke-width:0.70749998;stroke-linecap:butt;stroke-linejoin:round;stroke-miterlimit:10;stroke-opacity:1;stroke-dasharray:none" /></g><g
           id="g226"><text
             transform="matrix(1,0,0,-1,129.7,49.6)"
             id="text228"><tspan
               x="0 2.0999999 7.6900001 12.69 18.190001 20.389999 22.49"
               y="0"
               id="tspan230"
               style="font-size:10px;font-variant:normal;font-weight:normal;writing-mode:lr-tb;fill:#1a1a1a;fill-opacity:1;fill-rule:nonzero;stroke:none;font-family:Liberation Sans;-inkscape-font-specification:LiberationSans">invalid</tspan></text>
</g><path
           d="m 219.6,43.2 -54,0 0,18 108,0 0,-18 -54,0 z"
           inkscape:connector-curvature="0"
           id="path232"
           style="fill:#b3b3b3;fill-opacity:1;fill-rule:evenodd;stroke:none" /><g
           id="g234"><path
             d="m 219.6,43.2 -54,0 0,18 108,0 0,-18 -54,0 z"
             inkscape:connector-curvature="0"
             id="path236"
             style="fill:none;stroke:#000000;stroke-width:0.70749998;stroke-linecap:butt;stroke-linejoin:round;stroke-miterlimit:10;stroke-opacity:1;stroke-dasharray:none" /></g><g
           id="g238"><text
             transform="matrix(1,0,0,-1,208.5,48.8)"
             id="text240"><tspan
               x="0 6.5999999 9.8999996 13.29 18.790001"
               y="0"
               id="tspan242"
               style="font-size:10px;font-variant:normal;font-weight:normal;writing-mode:lr-tb;fill:#1a1a1a;fill-opacity:1;fill-rule:nonzero;stroke:none;font-family:Liberation Sans;-inkscape-font-specification:LiberationSans">Error</tspan></text>
</g><path
           d="m 424.8,43.2 -21.6,0 0,18 43.2,0 0,-18 -21.6,0 z"
           inkscape:connector-curvature="0"
           id="path244"
           style="fill:#b3b3b3;fill-opacity:1;fill-rule:evenodd;stroke:none" /><g
           id="g246"><path
             d="m 424.8,43.2 -21.6,0 0,18 43.2,0 0,-18 -21.6,0 z"
             inkscape:connector-curvature="0"
             id="path248"
             style="fill:none;stroke:#000000;stroke-width:0.70749998;stroke-linecap:butt;stroke-linejoin:round;stroke-miterlimit:10;stroke-opacity:1;stroke-dasharray:none" /></g><g
           id="g250"><text
             transform="matrix(1,0,0,-1,410.5,49.6)"
             id="text252"><tspan
               x="0 2.2 7.6999998 12.7 18.200001 20.4 22.6"
               y="0"
               id="tspan254"
               style="font-size:10px;font-variant:normal;font-weight:normal;writing-mode:lr-tb;fill:#1a1a1a;fill-opacity:1;fill-rule:nonzero;stroke:none;font-family:Liberation Sans;-inkscape-font-specification:LiberationSans">invalid</tspan></text>
</g><g
           id="g256"><path
             d="m 72,61.2 460.8,0"
             inkscape:connector-curvature="0"
             id="path258"
             style="fill:none;stroke:#000000;stroke-width:2.15078998;stroke-linecap:butt;stroke-linejoin:round;stroke-miterlimit:10;stroke-opacity:1;stroke-dasharray:none" /></g></g></g></g></svg>
