<?xml version="1.0" encoding="UTF-8" standalone="no"?>
<!-- Created with Inkscape (http://www.inkscape.org/) -->

<svg
   xmlns:dc="http://purl.org/dc/elements/1.1/"
   xmlns:cc="http://creativecommons.org/ns#"
   xmlns:rdf="http://www.w3.org/1999/02/22-rdf-syntax-ns#"
   xmlns:svg="http://www.w3.org/2000/svg"
   xmlns="http://www.w3.org/2000/svg"
   xmlns:inkscape="http://www.inkscape.org/namespaces/inkscape"
   version="1.1"
   width="495"
   height="225"
   id="svg2"
   xml:space="preserve"><metadata
     id="metadata8"><rdf:RDF><cc:Work
         rdf:about=""><dc:format>image/svg+xml</dc:format><dc:type
           rdf:resource="http://purl.org/dc/dcmitype/StillImage" /></cc:Work></rdf:RDF></metadata><defs
     id="defs6"><clipPath
       id="clipPath16"><path
         d="M 0,0 396,0 396,180 0,180 0,0 z"
         inkscape:connector-curvature="0"
         id="path18" /></clipPath></defs><g
     transform="matrix(1.25,0,0,-1.25,0,225)"
     id="g10"><g
       id="g12"><g
         clip-path="url(#clipPath16)"
         id="g14"><path
           d="M 0,180 396,180 396,0 0,0 0,180 z"
           inkscape:connector-curvature="0"
           id="path20"
           style="fill:#ffffff;fill-opacity:0;fill-rule:evenodd;stroke:none" /><g
           id="g22"><text
             transform="matrix(1,0,0,-1,18.2,130.5)"
             id="text24"><tspan
               x="0 7.8979998"
               y="0"
               id="tspan26"
               style="font-size:11px;font-variant:normal;font-weight:normal;writing-mode:lr-tb;fill:#1a1a1a;fill-opacity:1;fill-rule:nonzero;stroke:none;font-family:Liberation Sans;-inkscape-font-specification:LiberationSans">Rn</tspan></text>
</g><g
           id="g28"><path
             d="m 166.8,83.1 68.4,32.1"
             inkscape:connector-curvature="0"
             id="path30"
             style="fill:none;stroke:#000000;stroke-width:0.69999999;stroke-linecap:butt;stroke-linejoin:miter;stroke-miterlimit:10;stroke-opacity:1;stroke-dasharray:none" /></g><path
           d="m 158.4,79.2 10.2,1.2 -2.8,5.9 -7.4,-7.1 z"
           inkscape:connector-curvature="0"
           id="path32"
           style="fill:#000000;fill-opacity:1;fill-rule:evenodd;stroke:none" /><g
           id="g34"><path
             d="m 294.6,85.8 15,15"
             inkscape:connector-curvature="0"
             id="path36"
             style="fill:none;stroke:#000000;stroke-width:0.69999999;stroke-linecap:butt;stroke-linejoin:miter;stroke-miterlimit:10;stroke-opacity:1;stroke-dasharray:none" /></g><path
           d="m 288,79.2 9.2,4.6 -4.6,4.6 -4.6,-9.2 z"
           inkscape:connector-curvature="0"
           id="path38"
           style="fill:#000000;fill-opacity:1;fill-rule:evenodd;stroke:none" /><g
           id="g40"><text
             transform="matrix(1,0,0,-1,298.7,103.1)"
             id="text42"><tspan
               x="0 7.8979998 14.003 20.108 26.301001 32.405998 35.497002 38.588001 44.175999 50.280998 56.386002 59.477001 63.161999 69.355003 71.752998 74.844002 77.934998 80.333 86.438004"
               y="0"
               id="tspan44"
               style="font-size:11px;font-variant:normal;font-weight:normal;writing-mode:lr-tb;fill:#1a1a1a;fill-opacity:1;fill-rule:nonzero;stroke:none;font-family:Liberation Sans;-inkscape-font-specification:LiberationSans">Repeat control flag</tspan></text>
</g><g
           id="g46"><text
             transform="matrix(1,0,0,-1,53.9,67.6)"
             id="text48"><tspan
               x="0 5.5"
               y="0"
               id="tspan50"
               style="font-size:10px;font-variant:normal;font-weight:normal;writing-mode:lr-tb;fill:#1a1a1a;fill-opacity:1;fill-rule:nonzero;stroke:none;font-family:Liberation Sans;-inkscape-font-specification:LiberationSans">31</tspan></text>
</g><path
           d="m 69.6,37 -14.4,0 0,25.2 28.8,0 0,-25.2 -14.4,0 z"
           inkscape:connector-curvature="0"
           id="path52"
           style="fill:#ffffff;fill-opacity:1;fill-rule:evenodd;stroke:none" /><g
           id="g54"><path
             d="m 69.6,37 -14.4,0 0,25.2 28.8,0 0,-25.2 -14.4,0 z"
             inkscape:connector-curvature="0"
             id="path56"
             style="fill:none;stroke:#000000;stroke-width:0.70749998;stroke-linecap:butt;stroke-linejoin:round;stroke-miterlimit:10;stroke-opacity:1;stroke-dasharray:none" /></g><path
           d="m 231.6,37 -46.8,0 0,25.2 93.6,0 0,-25.2 -46.8,0 z"
           inkscape:connector-curvature="0"
           id="path58"
           style="fill:#ffffff;fill-opacity:1;fill-rule:evenodd;stroke:none" /><g
           id="g60"><path
             d="m 231.6,37 -46.8,0 0,25.2 93.6,0 0,-25.2 -46.8,0 z"
             inkscape:connector-curvature="0"
             id="path62"
             style="fill:none;stroke:#000000;stroke-width:0.70749998;stroke-linecap:butt;stroke-linejoin:round;stroke-miterlimit:10;stroke-opacity:1;stroke-dasharray:none" /></g><g
           id="g64"><text
             transform="matrix(1,0,0,-1,170.3,67.6)"
             id="text66"><tspan
               x="0 5.5"
               y="0"
               id="tspan68"
               style="font-size:10px;font-variant:normal;font-weight:normal;writing-mode:lr-tb;fill:#1a1a1a;fill-opacity:1;fill-rule:nonzero;stroke:none;font-family:Liberation Sans;-inkscape-font-specification:LiberationSans">16</tspan></text>
</g><g
           id="g70"><text
             transform="matrix(1,0,0,-1,185.5,67.6)"
             id="text72"><tspan
               x="0 5.5"
               y="0"
               id="tspan74"
               style="font-size:10px;font-variant:normal;font-weight:normal;writing-mode:lr-tb;fill:#1a1a1a;fill-opacity:1;fill-rule:nonzero;stroke:none;font-family:Liberation Sans;-inkscape-font-specification:LiberationSans">15</tspan></text>
</g><path
           d="m 305.4,37 -9,0 0,25.2 18,0 0,-25.2 -9,0 z"
           inkscape:connector-curvature="0"
           id="path76"
           style="fill:#ffffff;fill-opacity:1;fill-rule:evenodd;stroke:none" /><g
           id="g78"><path
             d="m 305.4,37 -9,0 0,25.2 18,0 0,-25.2 -9,0 z"
             inkscape:connector-curvature="0"
             id="path80"
             style="fill:none;stroke:#000000;stroke-width:0.70749998;stroke-linecap:butt;stroke-linejoin:round;stroke-miterlimit:10;stroke-opacity:1;stroke-dasharray:none" /></g><path
           d="m 287.4,37 -9,0 0,25.2 18,0 0,-25.2 -9,0 z"
           inkscape:connector-curvature="0"
           id="path82"
           style="fill:#ffffff;fill-opacity:1;fill-rule:evenodd;stroke:none" /><g
           id="g84"><path
             d="m 287.4,37 -9,0 0,25.2 18,0 0,-25.2 -9,0 z"
             inkscape:connector-curvature="0"
             id="path86"
             style="fill:none;stroke:#000000;stroke-width:0.70749998;stroke-linecap:butt;stroke-linejoin:round;stroke-miterlimit:10;stroke-opacity:1;stroke-dasharray:none" /></g><g
           id="g88"><text
             transform="matrix(1,0,0,-1,289.1,67.6)"
             id="text90"><tspan
               x="0"
               y="0"
               id="tspan92"
               style="font-size:10px;font-variant:normal;font-weight:normal;writing-mode:lr-tb;fill:#1a1a1a;fill-opacity:1;fill-rule:nonzero;stroke:none;font-family:Liberation Sans;-inkscape-font-specification:LiberationSans">2</tspan></text>
</g><g
           id="g94"><text
             transform="matrix(1,0,0,-1,310.7,67.6)"
             id="text96"><tspan
               x="0"
               y="0"
               id="tspan98"
               style="font-size:10px;font-variant:normal;font-weight:normal;writing-mode:lr-tb;fill:#1a1a1a;fill-opacity:1;fill-rule:nonzero;stroke:none;font-family:Liberation Sans;-inkscape-font-specification:LiberationSans">0</tspan></text>
</g><g
           id="g100"><text
             transform="matrix(1,0,0,-1,18.2,48.7)"
             id="text102"><tspan
               x="0 7.3039999"
               y="0"
               id="tspan104"
               style="font-size:11px;font-variant:normal;font-weight:normal;writing-mode:lr-tb;fill:#1a1a1a;fill-opacity:1;fill-rule:nonzero;stroke:none;font-family:Liberation Sans;-inkscape-font-specification:LiberationSans">SR</tspan></text>
</g><g
           id="g106"><text
             transform="matrix(1,0,0,-1,83.9,67.6)"
             id="text108"><tspan
               x="0 5.5"
               y="0"
               id="tspan110"
               style="font-size:10px;font-variant:normal;font-weight:normal;writing-mode:lr-tb;fill:#1a1a1a;fill-opacity:1;fill-rule:nonzero;stroke:none;font-family:Liberation Sans;-inkscape-font-specification:LiberationSans">27</tspan></text>
</g><path
           d="m 134.4,37 -50.4,0 0,25.2 100.8,0 0,-25.2 -50.4,0 z"
           inkscape:connector-curvature="0"
           id="path112"
           style="fill:#ffffff;fill-opacity:1;fill-rule:evenodd;stroke:none" /><g
           id="g114"><path
             d="m 134.4,37 -50.4,0 0,25.2 100.8,0 0,-25.2 -50.4,0 z"
             inkscape:connector-curvature="0"
             id="path116"
             style="fill:none;stroke:#000000;stroke-width:0.70749998;stroke-linecap:butt;stroke-linejoin:round;stroke-miterlimit:10;stroke-opacity:1;stroke-dasharray:none" /></g><g
           id="g118"><text
             transform="matrix(1,0,0,-1,118.2,45.8)"
             id="text120"><tspan
               x="0 6.105 12.21 15.301 21.493999 23.792999 26.983"
               y="0"
               id="tspan122"
               style="font-size:11px;font-variant:normal;font-weight:normal;writing-mode:lr-tb;fill:#1a1a1a;fill-opacity:1;fill-rule:nonzero;stroke:none;font-family:Liberation Sans;-inkscape-font-specification:LiberationSans">12 bits</tspan></text>
</g><g
           id="g124"><text
             transform="matrix(1,0,0,-1,278.3,67.6)"
             id="text126"><tspan
               x="0"
               y="0"
               id="tspan128"
               style="font-size:10px;font-variant:normal;font-weight:normal;writing-mode:lr-tb;fill:#1a1a1a;fill-opacity:1;fill-rule:nonzero;stroke:none;font-family:Liberation Sans;-inkscape-font-specification:LiberationSans">3</tspan></text>
</g><g
           id="g130"><text
             transform="matrix(1,0,0,-1,91.1,12.7)"
             id="text132"><tspan
               x="0 6.105 9.1960001 15.686 22.176001 25.267 33.252998 42.438 45.528999 51.633999 57.738998 60.929001 67.033997 70.125 73.216003 75.613998 84.898003 94.083 97.174004 103.664 110.154 113.245 119.35 125.455 131.64799"
               y="0"
               id="tspan134"
               style="font-size:11px;font-variant:normal;font-weight:normal;writing-mode:lr-tb;fill:#1a1a1a;fill-opacity:1;fill-rule:nonzero;stroke:none;font-family:Liberation Sans;-inkscape-font-specification:LiberationSans">1 &lt;= Rm[11:0] imm &lt;= 4095</tspan></text>
</g><path
           d="m 134.4,118.8 -79.2,0 0,25.2 158.4,0 0,-25.2 -79.2,0 z"
           inkscape:connector-curvature="0"
           id="path136"
           style="fill:#ffffff;fill-opacity:1;fill-rule:evenodd;stroke:none" /><g
           id="g138"><path
             d="m 134.4,118.8 -79.2,0 0,25.2 158.4,0 0,-25.2 -79.2,0 z"
             inkscape:connector-curvature="0"
             id="path140"
             style="fill:none;stroke:#000000;stroke-width:0.70749998;stroke-linecap:butt;stroke-linejoin:round;stroke-miterlimit:10;stroke-opacity:1;stroke-dasharray:none" /></g><path
           d="m 264,118.8 -50.4,0 0,25.2 100.8,0 0,-25.2 -50.4,0 z"
           inkscape:connector-curvature="0"
           id="path142"
           style="fill:#ffffff;fill-opacity:1;fill-rule:evenodd;stroke:none" /><g
           id="g144"><path
             d="m 264,118.8 -50.4,0 0,25.2 100.8,0 0,-25.2 -50.4,0 z"
             inkscape:connector-curvature="0"
             id="path146"
             style="fill:none;stroke:#000000;stroke-width:0.70749998;stroke-linecap:butt;stroke-linejoin:round;stroke-miterlimit:10;stroke-opacity:1;stroke-dasharray:none" /></g><g
           id="g148"><text
             transform="matrix(1,0,0,-1,247.8,127.6)"
             id="text150"><tspan
               x="0 6.105 12.21 15.301 21.493999 23.792999 26.983"
               y="0"
               id="tspan152"
               style="font-size:11px;font-variant:normal;font-weight:normal;writing-mode:lr-tb;fill:#1a1a1a;fill-opacity:1;fill-rule:nonzero;stroke:none;font-family:Liberation Sans;-inkscape-font-specification:LiberationSans">12 bits</tspan></text>
</g><g
           id="g154"><text
             transform="matrix(1,0,0,-1,313.1,149.4)"
             id="text156"><tspan
               x="0"
               y="0"
               id="tspan158"
               style="font-size:10px;font-variant:normal;font-weight:normal;writing-mode:lr-tb;fill:#1a1a1a;fill-opacity:1;fill-rule:nonzero;stroke:none;font-family:Liberation Sans;-inkscape-font-specification:LiberationSans">0</tspan></text>
</g><g
           id="g160"><text
             transform="matrix(1,0,0,-1,215.9,149.4)"
             id="text162"><tspan
               x="0 5.5"
               y="0"
               id="tspan164"
               style="font-size:10px;font-variant:normal;font-weight:normal;writing-mode:lr-tb;fill:#1a1a1a;fill-opacity:1;fill-rule:nonzero;stroke:none;font-family:Liberation Sans;-inkscape-font-specification:LiberationSans">11</tspan></text>
</g><g
           id="g166"><text
             transform="matrix(1,0,0,-1,201.5,149.4)"
             id="text168"><tspan
               x="0 5.5"
               y="0"
               id="tspan170"
               style="font-size:10px;font-variant:normal;font-weight:normal;writing-mode:lr-tb;fill:#1a1a1a;fill-opacity:1;fill-rule:nonzero;stroke:none;font-family:Liberation Sans;-inkscape-font-specification:LiberationSans">12</tspan></text>
</g><g
           id="g172"><text
             transform="matrix(1,0,0,-1,53.9,149.4)"
             id="text174"><tspan
               x="0 5.5"
               y="0"
               id="tspan176"
               style="font-size:10px;font-variant:normal;font-weight:normal;writing-mode:lr-tb;fill:#1a1a1a;fill-opacity:1;fill-rule:nonzero;stroke:none;font-family:Liberation Sans;-inkscape-font-specification:LiberationSans">31</tspan></text>
</g></g></g></g></svg>
