<?xml version="1.0" encoding="UTF-8" standalone="no"?>
<!-- Created with Inkscape (http://www.inkscape.org/) -->

<svg
   xmlns:dc="http://purl.org/dc/elements/1.1/"
   xmlns:cc="http://creativecommons.org/ns#"
   xmlns:rdf="http://www.w3.org/1999/02/22-rdf-syntax-ns#"
   xmlns:svg="http://www.w3.org/2000/svg"
   xmlns="http://www.w3.org/2000/svg"
   xmlns:inkscape="http://www.inkscape.org/namespaces/inkscape"
   version="1.1"
   width="495"
   height="225"
   id="svg2"
   xml:space="preserve"><metadata
     id="metadata8"><rdf:RDF><cc:Work
         rdf:about=""><dc:format>image/svg+xml</dc:format><dc:type
           rdf:resource="http://purl.org/dc/dcmitype/StillImage" /></cc:Work></rdf:RDF></metadata><defs
     id="defs6"><clipPath
       id="clipPath16"><path
         d="M 0,0 396,0 396,180 0,180 0,0 z"
         inkscape:connector-curvature="0"
         id="path18" /></clipPath></defs><g
     transform="matrix(1.25,0,0,-1.25,0,225)"
     id="g10"><g
       id="g12"><g
         clip-path="url(#clipPath16)"
         id="g14"><path
           d="M 0,180 396,180 396,0 0,0 0,180 z"
           inkscape:connector-curvature="0"
           id="path20"
           style="fill:#ffffff;fill-opacity:0;fill-rule:evenodd;stroke:none" /><g
           id="g22"><text
             transform="matrix(1,0,0,-1,18.2,130.5)"
             id="text24"><tspan
               x="0 2.398 11.583"
               y="0"
               id="tspan26"
               style="font-size:11px;font-variant:normal;font-weight:normal;writing-mode:lr-tb;fill:#1a1a1a;fill-opacity:1;fill-rule:nonzero;stroke:none;font-family:Liberation Sans;-inkscape-font-specification:LiberationSans">imm</tspan></text>
</g><g
           id="g28"><path
             d="m 193.8,93 25.8,25.8"
             inkscape:connector-curvature="0"
             id="path30"
             style="fill:none;stroke:#000000;stroke-width:0.69999999;stroke-linecap:butt;stroke-linejoin:miter;stroke-miterlimit:10;stroke-opacity:1;stroke-dasharray:none" /></g><path
           d="m 187.2,86.4 9.2,4.6 -4.6,4.6 -4.6,-9.2 z"
           inkscape:connector-curvature="0"
           id="path32"
           style="fill:#000000;fill-opacity:1;fill-rule:evenodd;stroke:none" /><g
           id="g34"><path
             d="m 319.1,99 4.9,19.8"
             inkscape:connector-curvature="0"
             id="path36"
             style="fill:none;stroke:#000000;stroke-width:0.69999999;stroke-linecap:butt;stroke-linejoin:miter;stroke-miterlimit:10;stroke-opacity:1;stroke-dasharray:none" /></g><path
           d="m 316.8,90 5.5,8.6 -6.3,1.6 0.8,-10.2 z"
           inkscape:connector-curvature="0"
           id="path38"
           style="fill:#000000;fill-opacity:1;fill-rule:evenodd;stroke:none" /><g
           id="g40"><text
             transform="matrix(1,0,0,-1,284.6,126.9)"
             id="text42"><tspan
               x="0 7.8979998 14.003 20.195999 26.301001 32.405998 35.497002 38.588001 44.175999 50.280998 56.386002 59.477001 63.161999 69.355003 71.752998 74.844002 77.934998 80.333 86.438004"
               y="0"
               id="tspan44"
               style="font-size:11px;font-variant:normal;font-weight:normal;writing-mode:lr-tb;fill:#1a1a1a;fill-opacity:1;fill-rule:nonzero;stroke:none;font-family:Liberation Sans;-inkscape-font-specification:LiberationSans">Repeat control flag</tspan></text>
</g><g
           id="g46"><text
             transform="matrix(1,0,0,-1,86.3,84.6)"
             id="text48"><tspan
               x="0 5.5"
               y="0"
               id="tspan50"
               style="font-size:10px;font-variant:normal;font-weight:normal;writing-mode:lr-tb;fill:#1a1a1a;fill-opacity:1;fill-rule:nonzero;stroke:none;font-family:Liberation Sans;-inkscape-font-specification:LiberationSans">31</tspan></text>
</g><path
           d="m 100.8,54 -14.4,0 0,25.2 28.8,0 0,-25.2 -14.4,0 z"
           inkscape:connector-curvature="0"
           id="path52"
           style="fill:#ffffff;fill-opacity:1;fill-rule:evenodd;stroke:none" /><g
           id="g54"><path
             d="m 100.8,54 -14.4,0 0,25.2 28.8,0 0,-25.2 -14.4,0 z"
             inkscape:connector-curvature="0"
             id="path56"
             style="fill:none;stroke:#000000;stroke-width:0.70749998;stroke-linecap:butt;stroke-linejoin:round;stroke-miterlimit:10;stroke-opacity:1;stroke-dasharray:none" /></g><path
           d="m 262.8,54 -46.8,0 0,25.2 93.6,0 0,-25.2 -46.8,0 z"
           inkscape:connector-curvature="0"
           id="path58"
           style="fill:#ffffff;fill-opacity:1;fill-rule:evenodd;stroke:none" /><g
           id="g60"><path
             d="m 262.8,54 -46.8,0 0,25.2 93.6,0 0,-25.2 -46.8,0 z"
             inkscape:connector-curvature="0"
             id="path62"
             style="fill:none;stroke:#000000;stroke-width:0.70749998;stroke-linecap:butt;stroke-linejoin:round;stroke-miterlimit:10;stroke-opacity:1;stroke-dasharray:none" /></g><g
           id="g64"><text
             transform="matrix(1,0,0,-1,201.5,84.6)"
             id="text66"><tspan
               x="0 5.5"
               y="0"
               id="tspan68"
               style="font-size:10px;font-variant:normal;font-weight:normal;writing-mode:lr-tb;fill:#1a1a1a;fill-opacity:1;fill-rule:nonzero;stroke:none;font-family:Liberation Sans;-inkscape-font-specification:LiberationSans">16</tspan></text>
</g><g
           id="g70"><text
             transform="matrix(1,0,0,-1,216.7,84.6)"
             id="text72"><tspan
               x="0 5.5"
               y="0"
               id="tspan74"
               style="font-size:10px;font-variant:normal;font-weight:normal;writing-mode:lr-tb;fill:#1a1a1a;fill-opacity:1;fill-rule:nonzero;stroke:none;font-family:Liberation Sans;-inkscape-font-specification:LiberationSans">15</tspan></text>
</g><path
           d="m 336.6,54 -9,0 0,25.2 18,0 0,-25.2 -9,0 z"
           inkscape:connector-curvature="0"
           id="path76"
           style="fill:#ffffff;fill-opacity:1;fill-rule:evenodd;stroke:none" /><g
           id="g78"><path
             d="m 336.6,54 -9,0 0,25.2 18,0 0,-25.2 -9,0 z"
             inkscape:connector-curvature="0"
             id="path80"
             style="fill:none;stroke:#000000;stroke-width:0.70749998;stroke-linecap:butt;stroke-linejoin:round;stroke-miterlimit:10;stroke-opacity:1;stroke-dasharray:none" /></g><path
           d="m 318.6,54 -9,0 0,25.2 18,0 0,-25.2 -9,0 z"
           inkscape:connector-curvature="0"
           id="path82"
           style="fill:#ffffff;fill-opacity:1;fill-rule:evenodd;stroke:none" /><g
           id="g84"><path
             d="m 318.6,54 -9,0 0,25.2 18,0 0,-25.2 -9,0 z"
             inkscape:connector-curvature="0"
             id="path86"
             style="fill:none;stroke:#000000;stroke-width:0.70749998;stroke-linecap:butt;stroke-linejoin:round;stroke-miterlimit:10;stroke-opacity:1;stroke-dasharray:none" /></g><g
           id="g88"><text
             transform="matrix(1,0,0,-1,320.3,84.6)"
             id="text90"><tspan
               x="0"
               y="0"
               id="tspan92"
               style="font-size:10px;font-variant:normal;font-weight:normal;writing-mode:lr-tb;fill:#1a1a1a;fill-opacity:1;fill-rule:nonzero;stroke:none;font-family:Liberation Sans;-inkscape-font-specification:LiberationSans">2</tspan></text>
</g><g
           id="g94"><text
             transform="matrix(1,0,0,-1,341.9,84.6)"
             id="text96"><tspan
               x="0"
               y="0"
               id="tspan98"
               style="font-size:10px;font-variant:normal;font-weight:normal;writing-mode:lr-tb;fill:#1a1a1a;fill-opacity:1;fill-rule:nonzero;stroke:none;font-family:Liberation Sans;-inkscape-font-specification:LiberationSans">0</tspan></text>
</g><g
           id="g100"><text
             transform="matrix(1,0,0,-1,18.2,65.7)"
             id="text102"><tspan
               x="0 7.3039999"
               y="0"
               id="tspan104"
               style="font-size:11px;font-variant:normal;font-weight:normal;writing-mode:lr-tb;fill:#1a1a1a;fill-opacity:1;fill-rule:nonzero;stroke:none;font-family:Liberation Sans;-inkscape-font-specification:LiberationSans">SR</tspan></text>
</g><path
           d="m 138.6,54 -23.4,0 0,25.2 46.8,0 0,-25.2 -23.4,0 z"
           inkscape:connector-curvature="0"
           id="path106"
           style="fill:#ffffff;fill-opacity:1;fill-rule:evenodd;stroke:none" /><g
           id="g108"><path
             d="m 138.6,54 -23.4,0 0,25.2 46.8,0 0,-25.2 -23.4,0 z"
             inkscape:connector-curvature="0"
             id="path110"
             style="fill:none;stroke:#000000;stroke-width:0.70749998;stroke-linecap:butt;stroke-linejoin:round;stroke-miterlimit:10;stroke-opacity:1;stroke-dasharray:none" /></g><g
           id="g112"><text
             transform="matrix(1,0,0,-1,135.5,62.8)"
             id="text114"><tspan
               x="0"
               y="0"
               id="tspan116"
               style="font-size:11px;font-variant:normal;font-weight:normal;writing-mode:lr-tb;fill:#1a1a1a;fill-opacity:1;fill-rule:nonzero;stroke:none;font-family:Liberation Sans;-inkscape-font-specification:LiberationSans">0</tspan></text>
</g><g
           id="g118"><text
             transform="matrix(1,0,0,-1,115.1,84.6)"
             id="text120"><tspan
               x="0 5.5"
               y="0"
               id="tspan122"
               style="font-size:10px;font-variant:normal;font-weight:normal;writing-mode:lr-tb;fill:#1a1a1a;fill-opacity:1;fill-rule:nonzero;stroke:none;font-family:Liberation Sans;-inkscape-font-specification:LiberationSans">27</tspan></text>
</g><path
           d="m 189,54 -27,0 0,25.2 54,0 0,-25.2 -27,0 z"
           inkscape:connector-curvature="0"
           id="path124"
           style="fill:#ffffff;fill-opacity:1;fill-rule:evenodd;stroke:none" /><g
           id="g126"><path
             d="m 189,54 -27,0 0,25.2 54,0 0,-25.2 -27,0 z"
             inkscape:connector-curvature="0"
             id="path128"
             style="fill:none;stroke:#000000;stroke-width:0.70749998;stroke-linecap:butt;stroke-linejoin:round;stroke-miterlimit:10;stroke-opacity:1;stroke-dasharray:none" /></g><g
           id="g130"><text
             transform="matrix(1,0,0,-1,175.8,62.8)"
             id="text132"><tspan
               x="0 6.105 9.1960001 15.301 17.698999 20.889"
               y="0"
               id="tspan134"
               style="font-size:11px;font-variant:normal;font-weight:normal;writing-mode:lr-tb;fill:#1a1a1a;fill-opacity:1;fill-rule:nonzero;stroke:none;font-family:Liberation Sans;-inkscape-font-specification:LiberationSans">8 bits</tspan></text>
</g><g
           id="g136"><text
             transform="matrix(1,0,0,-1,309.5,84.6)"
             id="text138"><tspan
               x="0"
               y="0"
               id="tspan140"
               style="font-size:10px;font-variant:normal;font-weight:normal;writing-mode:lr-tb;fill:#1a1a1a;fill-opacity:1;fill-rule:nonzero;stroke:none;font-family:Liberation Sans;-inkscape-font-specification:LiberationSans">3</tspan></text>
</g><g
           id="g142"><text
             transform="matrix(1,0,0,-1,161.9,84.6)"
             id="text144"><tspan
               x="0 5.5"
               y="0"
               id="tspan146"
               style="font-size:10px;font-variant:normal;font-weight:normal;writing-mode:lr-tb;fill:#1a1a1a;fill-opacity:1;fill-rule:nonzero;stroke:none;font-family:Liberation Sans;-inkscape-font-specification:LiberationSans">23</tspan></text>
</g><g
           id="g148"><text
             transform="matrix(1,0,0,-1,169.1,29.7)"
             id="text150"><tspan
               x="0 6.105 9.1960001 15.686 22.176001 25.267 27.665001 36.949001 46.133999 49.224998 55.715 62.205002 65.295998 71.401001 77.505997"
               y="0"
               id="tspan152"
               style="font-size:11px;font-variant:normal;font-weight:normal;writing-mode:lr-tb;fill:#1a1a1a;fill-opacity:1;fill-rule:nonzero;stroke:none;font-family:Liberation Sans;-inkscape-font-specification:LiberationSans">1 &lt;= imm &lt;= 255</tspan></text>
</g><path
           d="m 221.4,122.4 -27,0 0,25.2 54,0 0,-25.2 -27,0 z"
           inkscape:connector-curvature="0"
           id="path154"
           style="fill:#ffffff;fill-opacity:1;fill-rule:evenodd;stroke:none" /><g
           id="g156"><path
             d="m 221.4,122.4 -27,0 0,25.2 54,0 0,-25.2 -27,0 z"
             inkscape:connector-curvature="0"
             id="path158"
             style="fill:none;stroke:#000000;stroke-width:0.70749998;stroke-linecap:butt;stroke-linejoin:round;stroke-miterlimit:10;stroke-opacity:1;stroke-dasharray:none" /></g><g
           id="g160"><text
             transform="matrix(1,0,0,-1,208.2,131.2)"
             id="text162"><tspan
               x="0 6.105 9.1960001 15.301 17.698999 20.889"
               y="0"
               id="tspan164"
               style="font-size:11px;font-variant:normal;font-weight:normal;writing-mode:lr-tb;fill:#1a1a1a;fill-opacity:1;fill-rule:nonzero;stroke:none;font-family:Liberation Sans;-inkscape-font-specification:LiberationSans">8 bits</tspan></text>
</g><g
           id="g166"><text
             transform="matrix(1,0,0,-1,244.7,149.4)"
             id="text168"><tspan
               x="0"
               y="0"
               id="tspan170"
               style="font-size:10px;font-variant:normal;font-weight:normal;writing-mode:lr-tb;fill:#1a1a1a;fill-opacity:1;fill-rule:nonzero;stroke:none;font-family:Liberation Sans;-inkscape-font-specification:LiberationSans">0</tspan></text>
</g><g
           id="g172"><text
             transform="matrix(1,0,0,-1,195.1,150.1)"
             id="text174"><tspan
               x="0"
               y="0"
               id="tspan176"
               style="font-size:10px;font-variant:normal;font-weight:normal;writing-mode:lr-tb;fill:#1a1a1a;fill-opacity:1;fill-rule:nonzero;stroke:none;font-family:Liberation Sans;-inkscape-font-specification:LiberationSans">7</tspan></text>
</g></g></g></g></svg>
