<?xml version="1.0" encoding="UTF-8" standalone="no"?>
<!-- Created with Inkscape (http://www.inkscape.org/) -->

<svg
   xmlns:dc="http://purl.org/dc/elements/1.1/"
   xmlns:cc="http://creativecommons.org/ns#"
   xmlns:rdf="http://www.w3.org/1999/02/22-rdf-syntax-ns#"
   xmlns:svg="http://www.w3.org/2000/svg"
   xmlns="http://www.w3.org/2000/svg"
   xmlns:inkscape="http://www.inkscape.org/namespaces/inkscape"
   version="1.1"
   width="450"
   height="360"
   id="svg2"
   xml:space="preserve"><metadata
     id="metadata8"><rdf:RDF><cc:Work
         rdf:about=""><dc:format>image/svg+xml</dc:format><dc:type
           rdf:resource="http://purl.org/dc/dcmitype/StillImage" /></cc:Work></rdf:RDF></metadata><defs
     id="defs6"><clipPath
       id="clipPath16"><path
         d="M 0,0 360,0 360,288 0,288 0,0 z"
         inkscape:connector-curvature="0"
         id="path18" /></clipPath></defs><g
     transform="matrix(1.25,0,0,-1.25,0,360)"
     id="g10"><g
       id="g12"><g
         clip-path="url(#clipPath16)"
         id="g14"><path
           d="M 0,288 360,288 360,0 0,0 0,288 z"
           inkscape:connector-curvature="0"
           id="path20"
           style="fill:#ffffff;fill-opacity:0;fill-rule:evenodd;stroke:none" /><g
           id="g22"><text
             transform="matrix(1,0,0,-1,71.9,260.1)"
             id="text24"><tspan
               x="0 9.1850004 16.489"
               y="0"
               id="tspan26"
               style="font-size:11px;font-variant:normal;font-weight:normal;writing-mode:lr-tb;fill:#1a1a1a;fill-opacity:1;fill-rule:nonzero;stroke:none;font-family:Liberation Sans;-inkscape-font-specification:LiberationSans">MSB</tspan></text>
</g><g
           id="g28"><text
             transform="matrix(1,0,0,-1,244.7,260.1)"
             id="text30"><tspan
               x="0 6.105 13.409"
               y="0"
               id="tspan32"
               style="font-size:11px;font-variant:normal;font-weight:normal;writing-mode:lr-tb;fill:#1a1a1a;fill-opacity:1;fill-rule:nonzero;stroke:none;font-family:Liberation Sans;-inkscape-font-specification:LiberationSans">LSB</tspan></text>
</g><path
           d="m 111.6,223.2 -25.2,0 0,32.4 50.4,0 0,-32.4 -25.2,0 z"
           inkscape:connector-curvature="0"
           id="path34"
           style="fill:#ffffff;fill-opacity:1;fill-rule:evenodd;stroke:none" /><g
           id="g36"><path
             d="m 111.6,223.2 -25.2,0 0,32.4 50.4,0 0,-32.4 -25.2,0 z"
             inkscape:connector-curvature="0"
             id="path38"
             style="fill:none;stroke:#000000;stroke-width:0.70749998;stroke-linecap:butt;stroke-linejoin:round;stroke-miterlimit:10;stroke-opacity:1;stroke-dasharray:none" /></g><g
           id="g40"><text
             transform="matrix(1,0,0,-1,11,235.3)"
             id="text42"><tspan
               x="0 7.8979998 17.083 20.273001 26.763 33.165001 36.355"
               y="0"
               id="tspan44"
               style="font-size:11px;font-variant:normal;font-weight:normal;writing-mode:lr-tb;fill:#1a1a1a;fill-opacity:1;fill-rule:nonzero;stroke:none;font-family:Liberation Sans;-inkscape-font-specification:LiberationSans">Rm &gt;= 0</tspan></text>
</g><g
           id="g46"><path
             d="m 94.7,202.2 42.1,21"
             inkscape:connector-curvature="0"
             id="path48"
             style="fill:none;stroke:#000000;stroke-width:0.69999999;stroke-linecap:butt;stroke-linejoin:miter;stroke-miterlimit:10;stroke-opacity:1;stroke-dasharray:none" /></g><path
           d="m 86.4,198 10.1,1.4 -2.8,5.9 -7.3,-7.3 z"
           inkscape:connector-curvature="0"
           id="path50"
           style="fill:#000000;fill-opacity:1;fill-rule:evenodd;stroke:none" /><path
           d="m 196.2,223.2 -59.4,0 0,32.4 118.8,0 0,-32.4 -59.4,0 z"
           inkscape:connector-curvature="0"
           id="path52"
           style="fill:#b3b3b3;fill-opacity:1;fill-rule:evenodd;stroke:none" /><g
           id="g54"><path
             d="m 196.2,223.2 -59.4,0 0,32.4 118.8,0 0,-32.4 -59.4,0 z"
             inkscape:connector-curvature="0"
             id="path56"
             style="fill:none;stroke:#000000;stroke-width:0.70749998;stroke-linecap:butt;stroke-linejoin:round;stroke-miterlimit:10;stroke-opacity:1;stroke-dasharray:none" /></g><path
           d="m 230.4,165.6 -25.2,0 0,32.4 50.4,0 0,-32.4 -25.2,0 z"
           inkscape:connector-curvature="0"
           id="path58"
           style="fill:#ffffff;fill-opacity:1;fill-rule:evenodd;stroke:none" /><g
           id="g60"><path
             d="m 230.4,165.6 -25.2,0 0,32.4 50.4,0 0,-32.4 -25.2,0 z"
             inkscape:connector-curvature="0"
             id="path62"
             style="fill:none;stroke:#000000;stroke-width:0.70749998;stroke-linecap:butt;stroke-linejoin:round;stroke-miterlimit:10;stroke-opacity:1;stroke-dasharray:none" /></g><path
           d="m 145.8,165.6 -59.4,0 0,32.4 118.8,0 0,-32.4 -59.4,0 z"
           inkscape:connector-curvature="0"
           id="path64"
           style="fill:#b3b3b3;fill-opacity:1;fill-rule:evenodd;stroke:none" /><g
           id="g66"><path
             d="m 145.8,165.6 -59.4,0 0,32.4 118.8,0 0,-32.4 -59.4,0 z"
             inkscape:connector-curvature="0"
             id="path68"
             style="fill:none;stroke:#000000;stroke-width:0.70749998;stroke-linecap:butt;stroke-linejoin:round;stroke-miterlimit:10;stroke-opacity:1;stroke-dasharray:none" /></g><g
           id="g70"><path
             d="m 213.5,202.2 42.1,21"
             inkscape:connector-curvature="0"
             id="path72"
             style="fill:none;stroke:#000000;stroke-width:0.69999999;stroke-linecap:butt;stroke-linejoin:miter;stroke-miterlimit:10;stroke-opacity:1;stroke-dasharray:none" /></g><path
           d="m 205.2,198 10.1,1.4 -2.8,5.9 -7.3,-7.3 z"
           inkscape:connector-curvature="0"
           id="path74"
           style="fill:#000000;fill-opacity:1;fill-rule:evenodd;stroke:none" /><g
           id="g76"><path
             d="m 264.9,180 30.3,0"
             inkscape:connector-curvature="0"
             id="path78"
             style="fill:none;stroke:#000000;stroke-width:0.69999999;stroke-linecap:butt;stroke-linejoin:miter;stroke-miterlimit:10;stroke-opacity:1;stroke-dasharray:none" /></g><path
           d="m 255.6,180 9.8,-3.3 0,6.5 -9.8,-3.2 z"
           inkscape:connector-curvature="0"
           id="path80"
           style="fill:#000000;fill-opacity:1;fill-rule:evenodd;stroke:none" /><g
           id="g82"><text
             transform="matrix(1,0,0,-1,302.3,177.3)"
             id="text84"><tspan
               x="0"
               y="0"
               id="tspan86"
               style="font-size:11px;font-variant:normal;font-weight:normal;writing-mode:lr-tb;fill:#1a1a1a;fill-opacity:1;fill-rule:nonzero;stroke:none;font-family:Liberation Sans;-inkscape-font-specification:LiberationSans">0</tspan></text>
</g><g
           id="g88"><text
             transform="matrix(1,0,0,-1,71.6,119.7)"
             id="text90"><tspan
               x="0 9.1850004 16.489"
               y="0"
               id="tspan92"
               style="font-size:11px;font-variant:normal;font-weight:normal;writing-mode:lr-tb;fill:#1a1a1a;fill-opacity:1;fill-rule:nonzero;stroke:none;font-family:Liberation Sans;-inkscape-font-specification:LiberationSans">MSB</tspan></text>
</g><g
           id="g94"><text
             transform="matrix(1,0,0,-1,244.4,119.7)"
             id="text96"><tspan
               x="0 6.105 13.409"
               y="0"
               id="tspan98"
               style="font-size:11px;font-variant:normal;font-weight:normal;writing-mode:lr-tb;fill:#1a1a1a;fill-opacity:1;fill-rule:nonzero;stroke:none;font-family:Liberation Sans;-inkscape-font-specification:LiberationSans">LSB</tspan></text>
</g><path
           d="m 230.4,82.8 -25.2,0 0,32.4 50.4,0 0,-32.4 -25.2,0 z"
           inkscape:connector-curvature="0"
           id="path100"
           style="fill:#ffffff;fill-opacity:1;fill-rule:evenodd;stroke:none" /><g
           id="g102"><path
             d="m 230.4,82.8 -25.2,0 0,32.4 50.4,0 0,-32.4 -25.2,0 z"
             inkscape:connector-curvature="0"
             id="path104"
             style="fill:none;stroke:#000000;stroke-width:0.70749998;stroke-linecap:butt;stroke-linejoin:round;stroke-miterlimit:10;stroke-opacity:1;stroke-dasharray:none" /></g><g
           id="g106"><text
             transform="matrix(1,0,0,-1,10.7,94.9)"
             id="text108"><tspan
               x="0 7.8979998 17.083 20.273001 26.674999 29.865"
               y="0"
               id="tspan110"
               style="font-size:11px;font-variant:normal;font-weight:normal;writing-mode:lr-tb;fill:#1a1a1a;fill-opacity:1;fill-rule:nonzero;stroke:none;font-family:Liberation Sans;-inkscape-font-specification:LiberationSans">Rm &lt; 0</tspan></text>
</g><g
           id="g112"><path
             d="m 128.5,61.8 -42.1,21"
             inkscape:connector-curvature="0"
             id="path114"
             style="fill:none;stroke:#000000;stroke-width:0.69999999;stroke-linecap:butt;stroke-linejoin:miter;stroke-miterlimit:10;stroke-opacity:1;stroke-dasharray:none" /></g><path
           d="m 136.8,57.6 -7.3,7.3 -2.8,-5.9 10.1,-1.4 z"
           inkscape:connector-curvature="0"
           id="path116"
           style="fill:#000000;fill-opacity:1;fill-rule:evenodd;stroke:none" /><path
           d="m 145.8,82.8 -59.4,0 0,32.4 118.8,0 0,-32.4 -59.4,0 z"
           inkscape:connector-curvature="0"
           id="path118"
           style="fill:#b3b3b3;fill-opacity:1;fill-rule:evenodd;stroke:none" /><g
           id="g120"><path
             d="m 145.8,82.8 -59.4,0 0,32.4 118.8,0 0,-32.4 -59.4,0 z"
             inkscape:connector-curvature="0"
             id="path122"
             style="fill:none;stroke:#000000;stroke-width:0.70749998;stroke-linecap:butt;stroke-linejoin:round;stroke-miterlimit:10;stroke-opacity:1;stroke-dasharray:none" /></g><path
           d="m 111.6,25.2 -25.2,0 0,32.4 50.4,0 0,-32.4 -25.2,0 z"
           inkscape:connector-curvature="0"
           id="path124"
           style="fill:#ffffff;fill-opacity:1;fill-rule:evenodd;stroke:none" /><g
           id="g126"><path
             d="m 111.6,25.2 -25.2,0 0,32.4 50.4,0 0,-32.4 -25.2,0 z"
             inkscape:connector-curvature="0"
             id="path128"
             style="fill:none;stroke:#000000;stroke-width:0.70749998;stroke-linecap:butt;stroke-linejoin:round;stroke-miterlimit:10;stroke-opacity:1;stroke-dasharray:none" /></g><path
           d="m 196.2,25.2 -59.4,0 0,32.4 118.8,0 0,-32.4 -59.4,0 z"
           inkscape:connector-curvature="0"
           id="path130"
           style="fill:#b3b3b3;fill-opacity:1;fill-rule:evenodd;stroke:none" /><g
           id="g132"><path
             d="m 196.2,25.2 -59.4,0 0,32.4 118.8,0 0,-32.4 -59.4,0 z"
             inkscape:connector-curvature="0"
             id="path134"
             style="fill:none;stroke:#000000;stroke-width:0.70749998;stroke-linecap:butt;stroke-linejoin:round;stroke-miterlimit:10;stroke-opacity:1;stroke-dasharray:none" /></g><g
           id="g136"><path
             d="m 247.3,61.8 -42.1,21"
             inkscape:connector-curvature="0"
             id="path138"
             style="fill:none;stroke:#000000;stroke-width:0.69999999;stroke-linecap:butt;stroke-linejoin:miter;stroke-miterlimit:10;stroke-opacity:1;stroke-dasharray:none" /></g><path
           d="m 255.6,57.6 -7.3,7.3 -2.8,-5.9 10.1,-1.4 z"
           inkscape:connector-curvature="0"
           id="path140"
           style="fill:#000000;fill-opacity:1;fill-rule:evenodd;stroke:none" /><g
           id="g142"><path
             d="M 77.1,39.6 54,39.6"
             inkscape:connector-curvature="0"
             id="path144"
             style="fill:none;stroke:#000000;stroke-width:0.69999999;stroke-linecap:butt;stroke-linejoin:miter;stroke-miterlimit:10;stroke-opacity:1;stroke-dasharray:none" /></g><path
           d="m 86.4,39.6 -9.7,3.2 0,-6.5 9.7,3.3 z"
           inkscape:connector-curvature="0"
           id="path146"
           style="fill:#000000;fill-opacity:1;fill-rule:evenodd;stroke:none" /><g
           id="g148"><text
             transform="matrix(1,0,0,-1,39.5,36.9)"
             id="text150"><tspan
               x="0"
               y="0"
               id="tspan152"
               style="font-size:11px;font-variant:normal;font-weight:normal;writing-mode:lr-tb;fill:#1a1a1a;fill-opacity:1;fill-rule:nonzero;stroke:none;font-family:Liberation Sans;-inkscape-font-specification:LiberationSans">0</tspan></text>
</g></g></g></g></svg>
