<?xml version="1.0" encoding="UTF-8" standalone="no"?>
<!-- Created with Inkscape (http://www.inkscape.org/) -->

<svg
   xmlns:dc="http://purl.org/dc/elements/1.1/"
   xmlns:cc="http://creativecommons.org/ns#"
   xmlns:rdf="http://www.w3.org/1999/02/22-rdf-syntax-ns#"
   xmlns:svg="http://www.w3.org/2000/svg"
   xmlns="http://www.w3.org/2000/svg"
   xmlns:inkscape="http://www.inkscape.org/namespaces/inkscape"
   version="1.1"
   width="450"
   height="180"
   id="svg2"
   xml:space="preserve"><metadata
     id="metadata8"><rdf:RDF><cc:Work
         rdf:about=""><dc:format>image/svg+xml</dc:format><dc:type
           rdf:resource="http://purl.org/dc/dcmitype/StillImage" /></cc:Work></rdf:RDF></metadata><defs
     id="defs6"><clipPath
       id="clipPath16"><path
         d="M 0,0 360,0 360,144 0,144 0,0 z"
         inkscape:connector-curvature="0"
         id="path18" /></clipPath></defs><g
     transform="matrix(1.25,0,0,-1.25,0,180)"
     id="g10"><g
       id="g12"><g
         clip-path="url(#clipPath16)"
         id="g14"><path
           d="M 0,144 360,144 360,0 0,0 0,144 z"
           inkscape:connector-curvature="0"
           id="path20"
           style="fill:#ffffff;fill-opacity:0;fill-rule:evenodd;stroke:none" /><g
           id="g22"><text
             transform="matrix(1,0,0,-1,71.9,116.1)"
             id="text24"><tspan
               x="0 9.1850004 16.489"
               y="0"
               id="tspan26"
               style="font-size:11px;font-variant:normal;font-weight:normal;writing-mode:lr-tb;fill:#1a1a1a;fill-opacity:1;fill-rule:nonzero;stroke:none;font-family:Liberation Sans;-inkscape-font-specification:LiberationSans">MSB</tspan></text>
</g><g
           id="g28"><text
             transform="matrix(1,0,0,-1,244.7,116.1)"
             id="text30"><tspan
               x="0 6.105 13.409"
               y="0"
               id="tspan32"
               style="font-size:11px;font-variant:normal;font-weight:normal;writing-mode:lr-tb;fill:#1a1a1a;fill-opacity:1;fill-rule:nonzero;stroke:none;font-family:Liberation Sans;-inkscape-font-specification:LiberationSans">LSB</tspan></text>
</g><path
           d="m 97.2,79.2 -10.8,0 0,32.4 21.6,0 0,-32.4 -10.8,0 z"
           inkscape:connector-curvature="0"
           id="path34"
           style="fill:#ffffff;fill-opacity:1;fill-rule:evenodd;stroke:none" /><g
           id="g36"><path
             d="m 97.2,79.2 -10.8,0 0,32.4 21.6,0 0,-32.4 -10.8,0 z"
             inkscape:connector-curvature="0"
             id="path38"
             style="fill:none;stroke:#000000;stroke-width:0.70749998;stroke-linecap:butt;stroke-linejoin:round;stroke-miterlimit:10;stroke-opacity:1;stroke-dasharray:none" /></g><g
           id="g40"><text
             transform="matrix(1,0,0,-1,11,91.3)"
             id="text42"><tspan
               x="0 7.3039999 15.202 21.395 27.5"
               y="0"
               id="tspan44"
               style="font-size:11px;font-variant:normal;font-weight:normal;writing-mode:lr-tb;fill:#1a1a1a;fill-opacity:1;fill-rule:nonzero;stroke:none;font-family:Liberation Sans;-inkscape-font-specification:LiberationSans">SHLL2</tspan></text>
</g><g
           id="g46"><path
             d="M 92.5,61.1 108,79.2"
             inkscape:connector-curvature="0"
             id="path48"
             style="fill:none;stroke:#000000;stroke-width:0.69999999;stroke-linecap:butt;stroke-linejoin:miter;stroke-miterlimit:10;stroke-opacity:1;stroke-dasharray:none" /></g><path
           d="m 86.4,54 8.8,5.3 -4.9,4.2 -3.9,-9.5 z"
           inkscape:connector-curvature="0"
           id="path50"
           style="fill:#000000;fill-opacity:1;fill-rule:evenodd;stroke:none" /><path
           d="m 181.8,79.2 -73.8,0 0,32.4 147.6,0 0,-32.4 -73.8,0 z"
           inkscape:connector-curvature="0"
           id="path52"
           style="fill:#b3b3b3;fill-opacity:1;fill-rule:evenodd;stroke:none" /><g
           id="g54"><path
             d="m 181.8,79.2 -73.8,0 0,32.4 147.6,0 0,-32.4 -73.8,0 z"
             inkscape:connector-curvature="0"
             id="path56"
             style="fill:none;stroke:#000000;stroke-width:0.70749998;stroke-linecap:butt;stroke-linejoin:round;stroke-miterlimit:10;stroke-opacity:1;stroke-dasharray:none" /></g><path
           d="m 244.8,21.6 -10.8,0 0,32.4 21.6,0 0,-32.4 -10.8,0 z"
           inkscape:connector-curvature="0"
           id="path58"
           style="fill:#ffffff;fill-opacity:1;fill-rule:evenodd;stroke:none" /><g
           id="g60"><path
             d="m 244.8,21.6 -10.8,0 0,32.4 21.6,0 0,-32.4 -10.8,0 z"
             inkscape:connector-curvature="0"
             id="path62"
             style="fill:none;stroke:#000000;stroke-width:0.70749998;stroke-linecap:butt;stroke-linejoin:round;stroke-miterlimit:10;stroke-opacity:1;stroke-dasharray:none" /></g><path
           d="m 160.2,21.6 -73.8,0 0,32.4 147.6,0 0,-32.4 -73.8,0 z"
           inkscape:connector-curvature="0"
           id="path64"
           style="fill:#b3b3b3;fill-opacity:1;fill-rule:evenodd;stroke:none" /><g
           id="g66"><path
             d="m 160.2,21.6 -73.8,0 0,32.4 147.6,0 0,-32.4 -73.8,0 z"
             inkscape:connector-curvature="0"
             id="path68"
             style="fill:none;stroke:#000000;stroke-width:0.70749998;stroke-linecap:butt;stroke-linejoin:round;stroke-miterlimit:10;stroke-opacity:1;stroke-dasharray:none" /></g><g
           id="g70"><path
             d="m 240.1,61.1 15.5,18.1"
             inkscape:connector-curvature="0"
             id="path72"
             style="fill:none;stroke:#000000;stroke-width:0.69999999;stroke-linecap:butt;stroke-linejoin:miter;stroke-miterlimit:10;stroke-opacity:1;stroke-dasharray:none" /></g><path
           d="m 234,54 8.8,5.3 -4.9,4.2 L 234,54 z"
           inkscape:connector-curvature="0"
           id="path74"
           style="fill:#000000;fill-opacity:1;fill-rule:evenodd;stroke:none" /><g
           id="g76"><path
             d="m 264.9,36 30.3,0"
             inkscape:connector-curvature="0"
             id="path78"
             style="fill:none;stroke:#000000;stroke-width:0.69999999;stroke-linecap:butt;stroke-linejoin:miter;stroke-miterlimit:10;stroke-opacity:1;stroke-dasharray:none" /></g><path
           d="m 255.6,36 9.8,-3.3 0,6.5 -9.8,-3.2 z"
           inkscape:connector-curvature="0"
           id="path80"
           style="fill:#000000;fill-opacity:1;fill-rule:evenodd;stroke:none" /><g
           id="g82"><text
             transform="matrix(1,0,0,-1,302.3,33.3)"
             id="text84"><tspan
               x="0"
               y="0"
               id="tspan86"
               style="font-size:11px;font-variant:normal;font-weight:normal;writing-mode:lr-tb;fill:#1a1a1a;fill-opacity:1;fill-rule:nonzero;stroke:none;font-family:Liberation Sans;-inkscape-font-specification:LiberationSans">0</tspan></text>
</g></g></g></g></svg>
